  0
SECTION
  2
HEADER
  9
$ACADVER
  1
AC1009
  9
$EXTMIN
 10
0.0
 20
0.0
 30
0.0
  9
$EXTMAX
 10
1000.0
 20
1000.0
 30
0.0
  9
$FILLMODE
 70
 0
  9
$SPLFRAME
 70
 1
  0
ENDSEC
  0
SECTION
  2
TABLES
  0
TABLE
  2
LAYER
 70
1
  0
LAYER
  2
0
 70
     0
 62
     7
  6
CONTINUOUS
  0
ENDTAB
  0
ENDSEC
  0
SECTION
  2
ENTITIES
  0
LINE
  8
0
 62
     1
 10
0.0496094
 20
10.1121
 30
0.0
 11
0.0496094
 21
9.96597
 31
0.0
  0
LINE
  8
0
 62
     1
 10
0.0496094
 20
9.96597
 30
0.0
 11
0.0496094
 21
9.02201
 31
0.0
  0
LINE
  8
0
 62
     1
 10
0.0496094
 20
9.02201
 30
0.0
 11
0.815799
 21
6.18878
 31
0.0
  0
LINE
  8
0
 62
     1
 10
0.815799
 20
6.18878
 30
0.0
 11
2.52457
 21
3.4699
 31
0.0
  0
LINE
  8
0
 62
     1
 10
2.52457
 20
3.4699
 30
0.0
 11
2.99723
 21
2.99723
 31
0.0
  0
LINE
  8
0
 62
     1
 10
2.99723
 20
2.99723
 30
0.0
 11
3.46852
 21
2.52595
 31
0.0
  0
LINE
  8
0
 62
     1
 10
3.46852
 20
2.52595
 30
0.0
 11
6.26043
 21
0.815799
 31
0.0
  0
LINE
  8
0
 62
     1
 10
6.26043
 20
0.815799
 30
0.0
 11
9.1488
 21
0.0496094
 31
0.0
  0
LINE
  8
0
 62
     1
 10
9.1488
 20
0.0496094
 30
0.0
 11
10.1121
 21
0.0496094
 31
0.0
  0
LINE
  8
0
 62
     1
 10
10.1121
 20
0.0496094
 30
0.0
 11
10.1121
 21
0.0496094
 31
0.0
  0
LINE
  8
0
 62
     1
 10
10.1121
 20
0.0496094
 30
0.0
 11
10.9595
 21
0.0496094
 31
0.0
  0
LINE
  8
0
 62
     1
 10
10.9595
 20
0.0496094
 30
0.0
 11
13.3546
 21
0.0496094
 31
0.0
  0
LINE
  8
0
 62
     1
 10
13.3546
 20
0.0496094
 30
0.0
 11
17.0753
 21
0.0496094
 31
0.0
  0
LINE
  8
0
 62
     1
 10
17.0753
 20
0.0496094
 30
0.0
 11
21.9025
 21
0.0496094
 31
0.0
  0
LINE
  8
0
 62
     1
 10
21.9025
 20
0.0496094
 30
0.0
 11
27.6145
 21
0.0496094
 31
0.0
  0
LINE
  8
0
 62
     1
 10
27.6145
 20
0.0496094
 30
0.0
 11
33.9893
 21
0.0496094
 31
0.0
  0
LINE
  8
0
 62
     1
 10
33.9893
 20
0.0496094
 30
0.0
 11
40.8065
 21
0.0496094
 31
0.0
  0
LINE
  8
0
 62
     1
 10
40.8065
 20
0.0496094
 30
0.0
 11
47.8455
 21
0.0496094
 31
0.0
  0
LINE
  8
0
 62
     1
 10
47.8455
 20
0.0496094
 30
0.0
 11
54.8831
 21
0.0496094
 31
0.0
  0
LINE
  8
0
 62
     1
 10
54.8831
 20
0.0496094
 30
0.0
 11
61.7001
 21
0.0496094
 31
0.0
  0
LINE
  8
0
 62
     1
 10
61.7001
 20
0.0496094
 30
0.0
 11
68.0752
 21
0.0496094
 31
0.0
  0
LINE
  8
0
 62
     1
 10
68.0752
 20
0.0496094
 30
0.0
 11
73.787
 21
0.0496094
 31
0.0
  0
LINE
  8
0
 62
     1
 10
73.787
 20
0.0496094
 30
0.0
 11
78.6144
 21
0.0496094
 31
0.0
  0
LINE
  8
0
 62
     1
 10
78.6144
 20
0.0496094
 30
0.0
 11
82.3352
 21
0.0496094
 31
0.0
  0
LINE
  8
0
 62
     1
 10
82.3352
 20
0.0496094
 30
0.0
 11
84.7302
 21
0.0496094
 31
0.0
  0
LINE
  8
0
 62
     1
 10
84.7302
 20
0.0496094
 30
0.0
 11
85.5789
 21
0.0496094
 31
0.0
  0
LINE
  8
0
 62
     1
 10
85.5789
 20
0.0496094
 30
0.0
 11
85.5789
 21
0.0496094
 31
0.0
  0
LINE
  8
0
 62
     1
 10
85.5789
 20
0.0496094
 30
0.0
 11
86.541
 21
0.0496094
 31
0.0
  0
LINE
  8
0
 62
     1
 10
86.541
 20
0.0496094
 30
0.0
 11
89.4292
 21
0.815799
 31
0.0
  0
LINE
  8
0
 62
     1
 10
89.4292
 20
0.815799
 30
0.0
 11
92.2211
 21
2.52595
 31
0.0
  0
LINE
  8
0
 62
     1
 10
92.2211
 20
2.52595
 30
0.0
 11
92.6938
 21
2.99723
 31
0.0
  0
LINE
  8
0
 62
     1
 10
92.6938
 20
2.99723
 30
0.0
 11
93.1651
 21
3.4699
 31
0.0
  0
LINE
  8
0
 62
     1
 10
93.1651
 20
3.4699
 30
0.0
 11
94.8753
 21
6.26181
 31
0.0
  0
LINE
  8
0
 62
     1
 10
94.8753
 20
6.26181
 30
0.0
 11
95.6412
 21
9.15017
 31
0.0
  0
LINE
  8
0
 62
     1
 10
95.6412
 20
9.15017
 30
0.0
 11
95.6412
 21
10.1121
 31
0.0
  0
LINE
  8
0
 62
     1
 10
95.6412
 20
10.1121
 30
0.0
 11
95.6412
 21
10.1121
 31
0.0
  0
LINE
  8
0
 62
     1
 10
95.6412
 20
10.1121
 30
0.0
 11
95.6412
 21
10.4703
 31
0.0
  0
LINE
  8
0
 62
     1
 10
95.6412
 20
10.4703
 30
0.0
 11
95.6412
 21
11.5149
 31
0.0
  0
LINE
  8
0
 62
     1
 10
95.6412
 20
11.5149
 30
0.0
 11
95.6412
 21
13.1989
 31
0.0
  0
LINE
  8
0
 62
     1
 10
95.6412
 20
13.1989
 30
0.0
 11
95.6412
 21
15.4781
 31
0.0
  0
LINE
  8
0
 62
     1
 10
95.6412
 20
15.4781
 30
0.0
 11
95.6412
 21
18.3059
 31
0.0
  0
LINE
  8
0
 62
     1
 10
95.6412
 20
18.3059
 30
0.0
 11
95.6412
 21
21.6366
 31
0.0
  0
LINE
  8
0
 62
     1
 10
95.6412
 20
21.6366
 30
0.0
 11
95.6412
 21
25.4248
 31
0.0
  0
LINE
  8
0
 62
     1
 10
95.6412
 20
25.4248
 30
0.0
 11
95.6412
 21
29.6237
 31
0.0
  0
LINE
  8
0
 62
     1
 10
95.6412
 20
29.6237
 30
0.0
 11
95.6412
 21
34.1891
 31
0.0
  0
LINE
  8
0
 62
     1
 10
95.6412
 20
34.1891
 30
0.0
 11
95.6412
 21
39.0744
 31
0.0
  0
LINE
  8
0
 62
     1
 10
95.6412
 20
39.0744
 30
0.0
 11
95.6412
 21
44.2352
 31
0.0
  0
LINE
  8
0
 62
     1
 10
95.6412
 20
44.2352
 30
0.0
 11
95.6412
 21
49.6231
 31
0.0
  0
LINE
  8
0
 62
     1
 10
95.6412
 20
49.6231
 30
0.0
 11
95.6412
 21
55.1946
 31
0.0
  0
LINE
  8
0
 62
     1
 10
95.6412
 20
55.1946
 30
0.0
 11
95.6412
 21
60.9025
 31
0.0
  0
LINE
  8
0
 62
     1
 10
95.6412
 20
60.9025
 30
0.0
 11
95.6412
 21
66.7025
 31
0.0
  0
LINE
  8
0
 62
     1
 10
95.6412
 20
66.7025
 30
0.0
 11
95.6412
 21
72.548
 31
0.0
  0
LINE
  8
0
 62
     1
 10
95.6412
 20
72.548
 30
0.0
 11
95.6412
 21
78.3953
 31
0.0
  0
LINE
  8
0
 62
     1
 10
95.6412
 20
78.3953
 30
0.0
 11
95.6412
 21
84.1954
 31
0.0
  0
LINE
  8
0
 62
     1
 10
95.6412
 20
84.1954
 30
0.0
 11
95.6412
 21
89.9033
 31
0.0
  0
LINE
  8
0
 62
     1
 10
95.6412
 20
89.9033
 30
0.0
 11
95.6412
 21
95.4747
 31
0.0
  0
LINE
  8
0
 62
     1
 10
95.6412
 20
95.4747
 30
0.0
 11
95.6412
 21
100.863
 31
0.0
  0
LINE
  8
0
 62
     1
 10
95.6412
 20
100.863
 30
0.0
 11
95.6412
 21
106.023
 31
0.0
  0
LINE
  8
0
 62
     1
 10
95.6412
 20
106.023
 30
0.0
 11
95.6412
 21
110.909
 31
0.0
  0
LINE
  8
0
 62
     1
 10
95.6412
 20
110.909
 30
0.0
 11
95.6412
 21
115.474
 31
0.0
  0
LINE
  8
0
 62
     1
 10
95.6412
 20
115.474
 30
0.0
 11
95.6412
 21
119.673
 31
0.0
  0
LINE
  8
0
 62
     1
 10
95.6412
 20
119.673
 30
0.0
 11
95.6412
 21
123.461
 31
0.0
  0
LINE
  8
0
 62
     1
 10
95.6412
 20
123.461
 30
0.0
 11
95.6412
 21
126.792
 31
0.0
  0
LINE
  8
0
 62
     1
 10
95.6412
 20
126.792
 30
0.0
 11
95.6412
 21
129.62
 31
0.0
  0
LINE
  8
0
 62
     1
 10
95.6412
 20
129.62
 30
0.0
 11
95.6412
 21
131.899
 31
0.0
  0
LINE
  8
0
 62
     1
 10
95.6412
 20
131.899
 30
0.0
 11
95.6412
 21
133.583
 31
0.0
  0
LINE
  8
0
 62
     1
 10
95.6412
 20
133.583
 30
0.0
 11
95.6412
 21
134.627
 31
0.0
  0
LINE
  8
0
 62
     1
 10
95.6412
 20
134.627
 30
0.0
 11
95.6412
 21
134.984
 31
0.0
  0
LINE
  8
0
 62
     1
 10
95.6412
 20
134.984
 30
0.0
 11
95.6412
 21
134.984
 31
0.0
  0
LINE
  8
0
 62
     1
 10
95.6412
 20
134.984
 30
0.0
 11
95.6412
 21
135.491
 31
0.0
  0
LINE
  8
0
 62
     1
 10
95.6412
 20
135.491
 30
0.0
 11
95.4359
 21
137.013
 31
0.0
  0
LINE
  8
0
 62
     1
 10
95.4359
 20
137.013
 30
0.0
 11
94.8503
 21
138.901
 31
0.0
  0
LINE
  8
0
 62
     1
 10
94.8503
 20
138.901
 30
0.0
 11
93.9214
 21
140.611
 31
0.0
  0
LINE
  8
0
 62
     1
 10
93.9214
 20
140.611
 30
0.0
 11
92.6938
 21
142.099
 31
0.0
  0
LINE
  8
0
 62
     1
 10
92.6938
 20
142.099
 30
0.0
 11
91.204
 21
143.328
 31
0.0
  0
LINE
  8
0
 62
     1
 10
91.204
 20
143.328
 30
0.0
 11
89.4955
 21
144.257
 31
0.0
  0
LINE
  8
0
 62
     1
 10
89.4955
 20
144.257
 30
0.0
 11
87.606
 21
144.843
 31
0.0
  0
LINE
  8
0
 62
     1
 10
87.606
 20
144.843
 30
0.0
 11
86.0848
 21
145.047
 31
0.0
  0
LINE
  8
0
 62
     1
 10
86.0848
 20
145.047
 30
0.0
 11
85.5789
 21
145.047
 31
0.0
  0
LINE
  8
0
 62
     1
 10
85.5789
 20
145.047
 30
0.0
 11
85.5789
 21
145.047
 31
0.0
  0
LINE
  8
0
 62
     1
 10
85.5789
 20
145.047
 30
0.0
 11
84.7302
 21
145.047
 31
0.0
  0
LINE
  8
0
 62
     1
 10
84.7302
 20
145.047
 30
0.0
 11
82.3352
 21
145.047
 31
0.0
  0
LINE
  8
0
 62
     1
 10
82.3352
 20
145.047
 30
0.0
 11
78.6144
 21
145.047
 31
0.0
  0
LINE
  8
0
 62
     1
 10
78.6144
 20
145.047
 30
0.0
 11
73.787
 21
145.047
 31
0.0
  0
LINE
  8
0
 62
     1
 10
73.787
 20
145.047
 30
0.0
 11
68.0752
 21
145.047
 31
0.0
  0
LINE
  8
0
 62
     1
 10
68.0752
 20
145.047
 30
0.0
 11
61.7001
 21
145.047
 31
0.0
  0
LINE
  8
0
 62
     1
 10
61.7001
 20
145.047
 30
0.0
 11
54.8831
 21
145.047
 31
0.0
  0
LINE
  8
0
 62
     1
 10
54.8831
 20
145.047
 30
0.0
 11
47.8455
 21
145.047
 31
0.0
  0
LINE
  8
0
 62
     1
 10
47.8455
 20
145.047
 30
0.0
 11
40.8065
 21
145.047
 31
0.0
  0
LINE
  8
0
 62
     1
 10
40.8065
 20
145.047
 30
0.0
 11
33.9893
 21
145.047
 31
0.0
  0
LINE
  8
0
 62
     1
 10
33.9893
 20
145.047
 30
0.0
 11
27.6145
 21
145.047
 31
0.0
  0
LINE
  8
0
 62
     1
 10
27.6145
 20
145.047
 30
0.0
 11
21.9025
 21
145.047
 31
0.0
  0
LINE
  8
0
 62
     1
 10
21.9025
 20
145.047
 30
0.0
 11
17.0753
 21
145.047
 31
0.0
  0
LINE
  8
0
 62
     1
 10
17.0753
 20
145.047
 30
0.0
 11
13.3546
 21
145.047
 31
0.0
  0
LINE
  8
0
 62
     1
 10
13.3546
 20
145.047
 30
0.0
 11
10.9595
 21
145.047
 31
0.0
  0
LINE
  8
0
 62
     1
 10
10.9595
 20
145.047
 30
0.0
 11
10.1121
 21
145.047
 31
0.0
  0
LINE
  8
0
 62
     1
 10
10.1121
 20
145.047
 30
0.0
 11
10.1121
 21
145.047
 31
0.0
  0
LINE
  8
0
 62
     1
 10
10.1121
 20
145.047
 30
0.0
 11
9.1488
 21
145.047
 31
0.0
  0
LINE
  8
0
 62
     1
 10
9.1488
 20
145.047
 30
0.0
 11
6.26043
 21
144.28
 31
0.0
  0
LINE
  8
0
 62
     1
 10
6.26043
 20
144.28
 30
0.0
 11
3.46852
 21
142.572
 31
0.0
  0
LINE
  8
0
 62
     1
 10
3.46852
 20
142.572
 30
0.0
 11
2.99723
 21
142.099
 31
0.0
  0
LINE
  8
0
 62
     1
 10
2.99723
 20
142.099
 30
0.0
 11
2.52457
 21
141.628
 31
0.0
  0
LINE
  8
0
 62
     1
 10
2.52457
 20
141.628
 30
0.0
 11
0.815799
 21
138.836
 31
0.0
  0
LINE
  8
0
 62
     1
 10
0.815799
 20
138.836
 30
0.0
 11
0.0496094
 21
135.948
 31
0.0
  0
LINE
  8
0
 62
     1
 10
0.0496094
 20
135.948
 30
0.0
 11
0.0496094
 21
134.984
 31
0.0
  0
LINE
  8
0
 62
     1
 10
0.0496094
 20
134.984
 30
0.0
 11
0.0496094
 21
134.984
 31
0.0
  0
LINE
  8
0
 62
     1
 10
0.0496094
 20
134.984
 30
0.0
 11
0.0496094
 21
134.627
 31
0.0
  0
LINE
  8
0
 62
     1
 10
0.0496094
 20
134.627
 30
0.0
 11
0.0496094
 21
133.583
 31
0.0
  0
LINE
  8
0
 62
     1
 10
0.0496094
 20
133.583
 30
0.0
 11
0.0496094
 21
131.899
 31
0.0
  0
LINE
  8
0
 62
     1
 10
0.0496094
 20
131.899
 30
0.0
 11
0.0496094
 21
129.62
 31
0.0
  0
LINE
  8
0
 62
     1
 10
0.0496094
 20
129.62
 30
0.0
 11
0.0496094
 21
126.792
 31
0.0
  0
LINE
  8
0
 62
     1
 10
0.0496094
 20
126.792
 30
0.0
 11
0.0496094
 21
123.461
 31
0.0
  0
LINE
  8
0
 62
     1
 10
0.0496094
 20
123.461
 30
0.0
 11
0.0496094
 21
119.673
 31
0.0
  0
LINE
  8
0
 62
     1
 10
0.0496094
 20
119.673
 30
0.0
 11
0.0496094
 21
115.474
 31
0.0
  0
LINE
  8
0
 62
     1
 10
0.0496094
 20
115.474
 30
0.0
 11
0.0496094
 21
110.909
 31
0.0
  0
LINE
  8
0
 62
     1
 10
0.0496094
 20
110.909
 30
0.0
 11
0.0496094
 21
106.023
 31
0.0
  0
LINE
  8
0
 62
     1
 10
0.0496094
 20
106.023
 30
0.0
 11
0.0496094
 21
100.863
 31
0.0
  0
LINE
  8
0
 62
     1
 10
0.0496094
 20
100.863
 30
0.0
 11
0.0496094
 21
95.4747
 31
0.0
  0
LINE
  8
0
 62
     1
 10
0.0496094
 20
95.4747
 30
0.0
 11
0.0496094
 21
89.9033
 31
0.0
  0
LINE
  8
0
 62
     1
 10
0.0496094
 20
89.9033
 30
0.0
 11
0.0496094
 21
84.1954
 31
0.0
  0
LINE
  8
0
 62
     1
 10
0.0496094
 20
84.1954
 30
0.0
 11
0.0496094
 21
78.3953
 31
0.0
  0
LINE
  8
0
 62
     1
 10
0.0496094
 20
78.3953
 30
0.0
 11
0.0496094
 21
72.548
 31
0.0
  0
LINE
  8
0
 62
     1
 10
0.0496094
 20
72.548
 30
0.0
 11
0.0496094
 21
66.7025
 31
0.0
  0
LINE
  8
0
 62
     1
 10
0.0496094
 20
66.7025
 30
0.0
 11
0.0496094
 21
60.9025
 31
0.0
  0
LINE
  8
0
 62
     1
 10
0.0496094
 20
60.9025
 30
0.0
 11
0.0496094
 21
55.1946
 31
0.0
  0
LINE
  8
0
 62
     1
 10
0.0496094
 20
55.1946
 30
0.0
 11
0.0496094
 21
49.6231
 31
0.0
  0
LINE
  8
0
 62
     1
 10
0.0496094
 20
49.6231
 30
0.0
 11
0.0496094
 21
44.2352
 31
0.0
  0
LINE
  8
0
 62
     1
 10
0.0496094
 20
44.2352
 30
0.0
 11
0.0496094
 21
39.0744
 31
0.0
  0
LINE
  8
0
 62
     1
 10
0.0496094
 20
39.0744
 30
0.0
 11
0.0496094
 21
34.1891
 31
0.0
  0
LINE
  8
0
 62
     1
 10
0.0496094
 20
34.1891
 30
0.0
 11
0.0496094
 21
29.6237
 31
0.0
  0
LINE
  8
0
 62
     1
 10
0.0496094
 20
29.6237
 30
0.0
 11
0.0496094
 21
25.4248
 31
0.0
  0
LINE
  8
0
 62
     1
 10
0.0496094
 20
25.4248
 30
0.0
 11
0.0496094
 21
21.6366
 31
0.0
  0
LINE
  8
0
 62
     1
 10
0.0496094
 20
21.6366
 30
0.0
 11
0.0496094
 21
18.3059
 31
0.0
  0
LINE
  8
0
 62
     1
 10
0.0496094
 20
18.3059
 30
0.0
 11
0.0496094
 21
15.4781
 31
0.0
  0
LINE
  8
0
 62
     1
 10
0.0496094
 20
15.4781
 30
0.0
 11
0.0496094
 21
13.1989
 31
0.0
  0
LINE
  8
0
 62
     1
 10
0.0496094
 20
13.1989
 30
0.0
 11
0.0496094
 21
11.5149
 31
0.0
  0
LINE
  8
0
 62
     1
 10
0.0496094
 20
11.5149
 30
0.0
 11
0.0496094
 21
10.4703
 31
0.0
  0
LINE
  8
0
 62
     1
 10
0.0496094
 20
10.4703
 30
0.0
 11
0.0496094
 21
10.1121
 31
0.0
  0
LINE
  8
0
 62
     1
 10
0.0496094
 20
10.1121
 30
0.0
 11
0.0496094
 21
10.1121
 31
0.0
  0
LINE
  8
0
 62
     1
 10
66.0079
 20
6.28936
 30
0.0
 11
66.0079
 21
6.43132
 31
0.0
  0
LINE
  8
0
 62
     1
 10
66.0079
 20
6.43132
 30
0.0
 11
66.1211
 21
6.85574
 31
0.0
  0
LINE
  8
0
 62
     1
 10
66.1211
 20
6.85574
 30
0.0
 11
66.4326
 21
7.31739
 31
0.0
  0
LINE
  8
0
 62
     1
 10
66.4326
 20
7.31739
 30
0.0
 11
66.8955
 21
7.62882
 31
0.0
  0
LINE
  8
0
 62
     1
 10
66.8955
 20
7.62882
 30
0.0
 11
67.3199
 21
7.74181
 31
0.0
  0
LINE
  8
0
 62
     1
 10
67.3199
 20
7.74181
 30
0.0
 11
67.4617
 21
7.74181
 31
0.0
  0
LINE
  8
0
 62
     1
 10
67.4617
 20
7.74181
 30
0.0
 11
67.6025
 21
7.74181
 31
0.0
  0
LINE
  8
0
 62
     1
 10
67.6025
 20
7.74181
 30
0.0
 11
68.0268
 21
7.62882
 31
0.0
  0
LINE
  8
0
 62
     1
 10
68.0268
 20
7.62882
 30
0.0
 11
68.4886
 21
7.31739
 31
0.0
  0
LINE
  8
0
 62
     1
 10
68.4886
 20
7.31739
 30
0.0
 11
68.7998
 21
6.85574
 31
0.0
  0
LINE
  8
0
 62
     1
 10
68.7998
 20
6.85574
 30
0.0
 11
68.9144
 21
6.43132
 31
0.0
  0
LINE
  8
0
 62
     1
 10
68.9144
 20
6.43132
 30
0.0
 11
68.9144
 21
6.28936
 31
0.0
  0
LINE
  8
0
 62
     1
 10
68.9144
 20
6.28936
 30
0.0
 11
68.9144
 21
6.14881
 31
0.0
  0
LINE
  8
0
 62
     1
 10
68.9144
 20
6.14881
 30
0.0
 11
68.7998
 21
5.72438
 31
0.0
  0
LINE
  8
0
 62
     1
 10
68.7998
 20
5.72438
 30
0.0
 11
68.4886
 21
5.26274
 31
0.0
  0
LINE
  8
0
 62
     1
 10
68.4886
 20
5.26274
 30
0.0
 11
68.0268
 21
4.95131
 31
0.0
  0
LINE
  8
0
 62
     1
 10
68.0268
 20
4.95131
 30
0.0
 11
67.6025
 21
4.8369
 31
0.0
  0
LINE
  8
0
 62
     1
 10
67.6025
 20
4.8369
 30
0.0
 11
67.4617
 21
4.8369
 31
0.0
  0
LINE
  8
0
 62
     1
 10
67.4617
 20
4.8369
 30
0.0
 11
67.3199
 21
4.8369
 31
0.0
  0
LINE
  8
0
 62
     1
 10
67.3199
 20
4.8369
 30
0.0
 11
66.8955
 21
4.95131
 31
0.0
  0
LINE
  8
0
 62
     1
 10
66.8955
 20
4.95131
 30
0.0
 11
66.4326
 21
5.26274
 31
0.0
  0
LINE
  8
0
 62
     1
 10
66.4326
 20
5.26274
 30
0.0
 11
66.1211
 21
5.72438
 31
0.0
  0
LINE
  8
0
 62
     1
 10
66.1211
 20
5.72438
 30
0.0
 11
66.0079
 21
6.14881
 31
0.0
  0
LINE
  8
0
 62
     1
 10
66.0079
 20
6.14881
 30
0.0
 11
66.0079
 21
6.28936
 31
0.0
  0
LINE
  8
0
 62
     1
 10
86.4087
 20
6.28936
 30
0.0
 11
86.4087
 21
6.43132
 31
0.0
  0
LINE
  8
0
 62
     1
 10
86.4087
 20
6.43132
 30
0.0
 11
86.5216
 21
6.85574
 31
0.0
  0
LINE
  8
0
 62
     1
 10
86.5216
 20
6.85574
 30
0.0
 11
86.8331
 21
7.31739
 31
0.0
  0
LINE
  8
0
 62
     1
 10
86.8331
 20
7.31739
 30
0.0
 11
87.2945
 21
7.62882
 31
0.0
  0
LINE
  8
0
 62
     1
 10
87.2945
 20
7.62882
 30
0.0
 11
87.7189
 21
7.74181
 31
0.0
  0
LINE
  8
0
 62
     1
 10
87.7189
 20
7.74181
 30
0.0
 11
87.8611
 21
7.74181
 31
0.0
  0
LINE
  8
0
 62
     1
 10
87.8611
 20
7.74181
 30
0.0
 11
88.0015
 21
7.74181
 31
0.0
  0
LINE
  8
0
 62
     1
 10
88.0015
 20
7.74181
 30
0.0
 11
88.4259
 21
7.62882
 31
0.0
  0
LINE
  8
0
 62
     1
 10
88.4259
 20
7.62882
 30
0.0
 11
88.8891
 21
7.31739
 31
0.0
  0
LINE
  8
0
 62
     1
 10
88.8891
 20
7.31739
 30
0.0
 11
89.2006
 21
6.85574
 31
0.0
  0
LINE
  8
0
 62
     1
 10
89.2006
 20
6.85574
 30
0.0
 11
89.3149
 21
6.43132
 31
0.0
  0
LINE
  8
0
 62
     1
 10
89.3149
 20
6.43132
 30
0.0
 11
89.3149
 21
6.28936
 31
0.0
  0
LINE
  8
0
 62
     1
 10
89.3149
 20
6.28936
 30
0.0
 11
89.3149
 21
6.14881
 31
0.0
  0
LINE
  8
0
 62
     1
 10
89.3149
 20
6.14881
 30
0.0
 11
89.2006
 21
5.72438
 31
0.0
  0
LINE
  8
0
 62
     1
 10
89.2006
 20
5.72438
 30
0.0
 11
88.8891
 21
5.26274
 31
0.0
  0
LINE
  8
0
 62
     1
 10
88.8891
 20
5.26274
 30
0.0
 11
88.4259
 21
4.95131
 31
0.0
  0
LINE
  8
0
 62
     1
 10
88.4259
 20
4.95131
 30
0.0
 11
88.0015
 21
4.8369
 31
0.0
  0
LINE
  8
0
 62
     1
 10
88.0015
 20
4.8369
 30
0.0
 11
87.8611
 21
4.8369
 31
0.0
  0
LINE
  8
0
 62
     1
 10
87.8611
 20
4.8369
 30
0.0
 11
87.7189
 21
4.8369
 31
0.0
  0
LINE
  8
0
 62
     1
 10
87.7189
 20
4.8369
 30
0.0
 11
87.2945
 21
4.95131
 31
0.0
  0
LINE
  8
0
 62
     1
 10
87.2945
 20
4.95131
 30
0.0
 11
86.8331
 21
5.26274
 31
0.0
  0
LINE
  8
0
 62
     1
 10
86.8331
 20
5.26274
 30
0.0
 11
86.5216
 21
5.72438
 31
0.0
  0
LINE
  8
0
 62
     1
 10
86.5216
 20
5.72438
 30
0.0
 11
86.4087
 21
6.14881
 31
0.0
  0
LINE
  8
0
 62
     1
 10
86.4087
 20
6.14881
 30
0.0
 11
86.4087
 21
6.28936
 31
0.0
  0
LINE
  8
0
 62
     1
 10
66.0079
 20
32.49
 30
0.0
 11
66.0079
 21
32.6319
 31
0.0
  0
LINE
  8
0
 62
     1
 10
66.0079
 20
32.6319
 30
0.0
 11
66.1211
 21
33.0564
 31
0.0
  0
LINE
  8
0
 62
     1
 10
66.1211
 20
33.0564
 30
0.0
 11
66.4326
 21
33.518
 31
0.0
  0
LINE
  8
0
 62
     1
 10
66.4326
 20
33.518
 30
0.0
 11
66.8955
 21
33.8294
 31
0.0
  0
LINE
  8
0
 62
     1
 10
66.8955
 20
33.8294
 30
0.0
 11
67.3199
 21
33.9424
 31
0.0
  0
LINE
  8
0
 62
     1
 10
67.3199
 20
33.9424
 30
0.0
 11
67.4617
 21
33.9424
 31
0.0
  0
LINE
  8
0
 62
     1
 10
67.4617
 20
33.9424
 30
0.0
 11
67.6025
 21
33.9424
 31
0.0
  0
LINE
  8
0
 62
     1
 10
67.6025
 20
33.9424
 30
0.0
 11
68.0268
 21
33.8294
 31
0.0
  0
LINE
  8
0
 62
     1
 10
68.0268
 20
33.8294
 30
0.0
 11
68.4886
 21
33.518
 31
0.0
  0
LINE
  8
0
 62
     1
 10
68.4886
 20
33.518
 30
0.0
 11
68.7998
 21
33.0564
 31
0.0
  0
LINE
  8
0
 62
     1
 10
68.7998
 20
33.0564
 30
0.0
 11
68.9144
 21
32.6319
 31
0.0
  0
LINE
  8
0
 62
     1
 10
68.9144
 20
32.6319
 30
0.0
 11
68.9144
 21
32.49
 31
0.0
  0
LINE
  8
0
 62
     1
 10
68.9144
 20
32.49
 30
0.0
 11
68.9144
 21
32.3494
 31
0.0
  0
LINE
  8
0
 62
     1
 10
68.9144
 20
32.3494
 30
0.0
 11
68.7998
 21
31.925
 31
0.0
  0
LINE
  8
0
 62
     1
 10
68.7998
 20
31.925
 30
0.0
 11
68.4886
 21
31.462
 31
0.0
  0
LINE
  8
0
 62
     1
 10
68.4886
 20
31.462
 30
0.0
 11
68.0268
 21
31.1506
 31
0.0
  0
LINE
  8
0
 62
     1
 10
68.0268
 20
31.1506
 30
0.0
 11
67.6025
 21
31.0362
 31
0.0
  0
LINE
  8
0
 62
     1
 10
67.6025
 20
31.0362
 30
0.0
 11
67.4617
 21
31.0362
 31
0.0
  0
LINE
  8
0
 62
     1
 10
67.4617
 20
31.0362
 30
0.0
 11
67.3199
 21
31.0362
 31
0.0
  0
LINE
  8
0
 62
     1
 10
67.3199
 20
31.0362
 30
0.0
 11
66.8955
 21
31.1506
 31
0.0
  0
LINE
  8
0
 62
     1
 10
66.8955
 20
31.1506
 30
0.0
 11
66.4326
 21
31.462
 31
0.0
  0
LINE
  8
0
 62
     1
 10
66.4326
 20
31.462
 30
0.0
 11
66.1211
 21
31.925
 31
0.0
  0
LINE
  8
0
 62
     1
 10
66.1211
 20
31.925
 30
0.0
 11
66.0079
 21
32.3494
 31
0.0
  0
LINE
  8
0
 62
     1
 10
66.0079
 20
32.3494
 30
0.0
 11
66.0079
 21
32.49
 31
0.0
  0
LINE
  8
0
 62
     1
 10
86.4087
 20
32.49
 30
0.0
 11
86.4087
 21
32.6319
 31
0.0
  0
LINE
  8
0
 62
     1
 10
86.4087
 20
32.6319
 30
0.0
 11
86.5216
 21
33.0564
 31
0.0
  0
LINE
  8
0
 62
     1
 10
86.5216
 20
33.0564
 30
0.0
 11
86.8331
 21
33.518
 31
0.0
  0
LINE
  8
0
 62
     1
 10
86.8331
 20
33.518
 30
0.0
 11
87.2945
 21
33.8294
 31
0.0
  0
LINE
  8
0
 62
     1
 10
87.2945
 20
33.8294
 30
0.0
 11
87.7189
 21
33.9424
 31
0.0
  0
LINE
  8
0
 62
     1
 10
87.7189
 20
33.9424
 30
0.0
 11
87.8611
 21
33.9424
 31
0.0
  0
LINE
  8
0
 62
     1
 10
87.8611
 20
33.9424
 30
0.0
 11
88.0015
 21
33.9424
 31
0.0
  0
LINE
  8
0
 62
     1
 10
88.0015
 20
33.9424
 30
0.0
 11
88.4259
 21
33.8294
 31
0.0
  0
LINE
  8
0
 62
     1
 10
88.4259
 20
33.8294
 30
0.0
 11
88.8891
 21
33.518
 31
0.0
  0
LINE
  8
0
 62
     1
 10
88.8891
 20
33.518
 30
0.0
 11
89.2006
 21
33.0564
 31
0.0
  0
LINE
  8
0
 62
     1
 10
89.2006
 20
33.0564
 30
0.0
 11
89.3149
 21
32.6319
 31
0.0
  0
LINE
  8
0
 62
     1
 10
89.3149
 20
32.6319
 30
0.0
 11
89.3149
 21
32.49
 31
0.0
  0
LINE
  8
0
 62
     1
 10
89.3149
 20
32.49
 30
0.0
 11
89.3149
 21
32.3494
 31
0.0
  0
LINE
  8
0
 62
     1
 10
89.3149
 20
32.3494
 30
0.0
 11
89.2006
 21
31.925
 31
0.0
  0
LINE
  8
0
 62
     1
 10
89.2006
 20
31.925
 30
0.0
 11
88.8891
 21
31.462
 31
0.0
  0
LINE
  8
0
 62
     1
 10
88.8891
 20
31.462
 30
0.0
 11
88.4259
 21
31.1506
 31
0.0
  0
LINE
  8
0
 62
     1
 10
88.4259
 20
31.1506
 30
0.0
 11
88.0015
 21
31.0362
 31
0.0
  0
LINE
  8
0
 62
     1
 10
88.0015
 20
31.0362
 30
0.0
 11
87.8611
 21
31.0362
 31
0.0
  0
LINE
  8
0
 62
     1
 10
87.8611
 20
31.0362
 30
0.0
 11
87.7189
 21
31.0362
 31
0.0
  0
LINE
  8
0
 62
     1
 10
87.7189
 20
31.0362
 30
0.0
 11
87.2945
 21
31.1506
 31
0.0
  0
LINE
  8
0
 62
     1
 10
87.2945
 20
31.1506
 30
0.0
 11
86.8331
 21
31.462
 31
0.0
  0
LINE
  8
0
 62
     1
 10
86.8331
 20
31.462
 30
0.0
 11
86.5216
 21
31.925
 31
0.0
  0
LINE
  8
0
 62
     1
 10
86.5216
 20
31.925
 30
0.0
 11
86.4087
 21
32.3494
 31
0.0
  0
LINE
  8
0
 62
     1
 10
86.4087
 20
32.3494
 30
0.0
 11
86.4087
 21
32.49
 31
0.0
  0
LINE
  8
0
 62
     1
 10
29.4859
 20
129.96
 30
0.0
 11
29.3384
 21
129.96
 31
0.0
  0
LINE
  8
0
 62
     1
 10
29.3384
 20
129.96
 30
0.0
 11
28.8975
 21
129.842
 31
0.0
  0
LINE
  8
0
 62
     1
 10
28.8975
 20
129.842
 30
0.0
 11
28.4179
 21
129.518
 31
0.0
  0
LINE
  8
0
 62
     1
 10
28.4179
 20
129.518
 30
0.0
 11
28.0954
 21
129.038
 31
0.0
  0
LINE
  8
0
 62
     1
 10
28.0954
 20
129.038
 30
0.0
 11
27.9769
 21
128.597
 31
0.0
  0
LINE
  8
0
 62
     1
 10
27.9769
 20
128.597
 30
0.0
 11
27.9769
 21
128.45
 31
0.0
  0
LINE
  8
0
 62
     1
 10
27.9769
 20
128.45
 30
0.0
 11
27.9769
 21
128.304
 31
0.0
  0
LINE
  8
0
 62
     1
 10
27.9769
 20
128.304
 30
0.0
 11
28.0954
 21
127.863
 31
0.0
  0
LINE
  8
0
 62
     1
 10
28.0954
 20
127.863
 30
0.0
 11
28.4179
 21
127.383
 31
0.0
  0
LINE
  8
0
 62
     1
 10
28.4179
 20
127.383
 30
0.0
 11
28.8975
 21
127.061
 31
0.0
  0
LINE
  8
0
 62
     1
 10
28.8975
 20
127.061
 30
0.0
 11
29.3384
 21
126.941
 31
0.0
  0
LINE
  8
0
 62
     1
 10
29.3384
 20
126.941
 30
0.0
 11
29.4859
 21
126.941
 31
0.0
  0
LINE
  8
0
 62
     1
 10
29.4859
 20
126.941
 30
0.0
 11
29.632
 21
126.941
 31
0.0
  0
LINE
  8
0
 62
     1
 10
29.632
 20
126.941
 30
0.0
 11
30.0729
 21
127.061
 31
0.0
  0
LINE
  8
0
 62
     1
 10
30.0729
 20
127.061
 30
0.0
 11
30.5525
 21
127.383
 31
0.0
  0
LINE
  8
0
 62
     1
 10
30.5525
 20
127.383
 30
0.0
 11
30.8749
 21
127.863
 31
0.0
  0
LINE
  8
0
 62
     1
 10
30.8749
 20
127.863
 30
0.0
 11
30.9948
 21
128.304
 31
0.0
  0
LINE
  8
0
 62
     1
 10
30.9948
 20
128.304
 30
0.0
 11
30.9948
 21
128.45
 31
0.0
  0
LINE
  8
0
 62
     1
 10
30.9948
 20
128.45
 30
0.0
 11
30.9948
 21
128.597
 31
0.0
  0
LINE
  8
0
 62
     1
 10
30.9948
 20
128.597
 30
0.0
 11
30.8749
 21
129.038
 31
0.0
  0
LINE
  8
0
 62
     1
 10
30.8749
 20
129.038
 30
0.0
 11
30.5525
 21
129.518
 31
0.0
  0
LINE
  8
0
 62
     1
 10
30.5525
 20
129.518
 30
0.0
 11
30.0729
 21
129.842
 31
0.0
  0
LINE
  8
0
 62
     1
 10
30.0729
 20
129.842
 30
0.0
 11
29.632
 21
129.96
 31
0.0
  0
LINE
  8
0
 62
     1
 10
29.632
 20
129.96
 30
0.0
 11
29.4859
 21
129.96
 31
0.0
  0
LINE
  8
0
 62
     1
 10
65.6537
 20
129.443
 30
0.0
 11
65.5066
 21
129.443
 31
0.0
  0
LINE
  8
0
 62
     1
 10
65.5066
 20
129.443
 30
0.0
 11
65.0656
 21
129.325
 31
0.0
  0
LINE
  8
0
 62
     1
 10
65.0656
 20
129.325
 30
0.0
 11
64.5859
 21
129.002
 31
0.0
  0
LINE
  8
0
 62
     1
 10
64.5859
 20
129.002
 30
0.0
 11
64.2634
 21
128.523
 31
0.0
  0
LINE
  8
0
 62
     1
 10
64.2634
 20
128.523
 30
0.0
 11
64.1449
 21
128.082
 31
0.0
  0
LINE
  8
0
 62
     1
 10
64.1449
 20
128.082
 30
0.0
 11
64.1449
 21
127.934
 31
0.0
  0
LINE
  8
0
 62
     1
 10
64.1449
 20
127.934
 30
0.0
 11
64.1449
 21
127.788
 31
0.0
  0
LINE
  8
0
 62
     1
 10
64.1449
 20
127.788
 30
0.0
 11
64.2634
 21
127.347
 31
0.0
  0
LINE
  8
0
 62
     1
 10
64.2634
 20
127.347
 30
0.0
 11
64.5859
 21
126.868
 31
0.0
  0
LINE
  8
0
 62
     1
 10
64.5859
 20
126.868
 30
0.0
 11
65.0656
 21
126.545
 31
0.0
  0
LINE
  8
0
 62
     1
 10
65.0656
 20
126.545
 30
0.0
 11
65.5066
 21
126.425
 31
0.0
  0
LINE
  8
0
 62
     1
 10
65.5066
 20
126.425
 30
0.0
 11
65.6537
 21
126.425
 31
0.0
  0
LINE
  8
0
 62
     1
 10
65.6537
 20
126.425
 30
0.0
 11
65.8001
 21
126.425
 31
0.0
  0
LINE
  8
0
 62
     1
 10
65.8001
 20
126.425
 30
0.0
 11
66.2411
 21
126.545
 31
0.0
  0
LINE
  8
0
 62
     1
 10
66.2411
 20
126.545
 30
0.0
 11
66.7205
 21
126.868
 31
0.0
  0
LINE
  8
0
 62
     1
 10
66.7205
 20
126.868
 30
0.0
 11
67.0444
 21
127.347
 31
0.0
  0
LINE
  8
0
 62
     1
 10
67.0444
 20
127.347
 30
0.0
 11
67.1643
 21
127.788
 31
0.0
  0
LINE
  8
0
 62
     1
 10
67.1643
 20
127.788
 30
0.0
 11
67.1643
 21
127.934
 31
0.0
  0
LINE
  8
0
 62
     1
 10
67.1643
 20
127.934
 30
0.0
 11
67.1643
 21
128.082
 31
0.0
  0
LINE
  8
0
 62
     1
 10
67.1643
 20
128.082
 30
0.0
 11
67.0444
 21
128.523
 31
0.0
  0
LINE
  8
0
 62
     1
 10
67.0444
 20
128.523
 30
0.0
 11
66.7205
 21
129.002
 31
0.0
  0
LINE
  8
0
 62
     1
 10
66.7205
 20
129.002
 30
0.0
 11
66.2411
 21
129.325
 31
0.0
  0
LINE
  8
0
 62
     1
 10
66.2411
 20
129.325
 30
0.0
 11
65.8001
 21
129.443
 31
0.0
  0
LINE
  8
0
 62
     1
 10
65.8001
 20
129.443
 30
0.0
 11
65.6537
 21
129.443
 31
0.0
  0
LINE
  8
0
 62
     1
 10
65.6537
 20
93.8692
 30
0.0
 11
65.5066
 21
93.8692
 31
0.0
  0
LINE
  8
0
 62
     1
 10
65.5066
 20
93.8692
 30
0.0
 11
65.0656
 21
93.7507
 31
0.0
  0
LINE
  8
0
 62
     1
 10
65.0656
 20
93.7507
 30
0.0
 11
64.5859
 21
93.4283
 31
0.0
  0
LINE
  8
0
 62
     1
 10
64.5859
 20
93.4283
 30
0.0
 11
64.2634
 21
92.9488
 31
0.0
  0
LINE
  8
0
 62
     1
 10
64.2634
 20
92.9488
 30
0.0
 11
64.1449
 21
92.5079
 31
0.0
  0
LINE
  8
0
 62
     1
 10
64.1449
 20
92.5079
 30
0.0
 11
64.1449
 21
92.3604
 31
0.0
  0
LINE
  8
0
 62
     1
 10
64.1449
 20
92.3604
 30
0.0
 11
64.1449
 21
92.2143
 31
0.0
  0
LINE
  8
0
 62
     1
 10
64.1449
 20
92.2143
 30
0.0
 11
64.2634
 21
91.7734
 31
0.0
  0
LINE
  8
0
 62
     1
 10
64.2634
 20
91.7734
 30
0.0
 11
64.5859
 21
91.2936
 31
0.0
  0
LINE
  8
0
 62
     1
 10
64.5859
 20
91.2936
 30
0.0
 11
65.0656
 21
90.9712
 31
0.0
  0
LINE
  8
0
 62
     1
 10
65.0656
 20
90.9712
 30
0.0
 11
65.5066
 21
90.8512
 31
0.0
  0
LINE
  8
0
 62
     1
 10
65.5066
 20
90.8512
 30
0.0
 11
65.6537
 21
90.8512
 31
0.0
  0
LINE
  8
0
 62
     1
 10
65.6537
 20
90.8512
 30
0.0
 11
65.8001
 21
90.8512
 31
0.0
  0
LINE
  8
0
 62
     1
 10
65.8001
 20
90.8512
 30
0.0
 11
66.2411
 21
90.9712
 31
0.0
  0
LINE
  8
0
 62
     1
 10
66.2411
 20
90.9712
 30
0.0
 11
66.7205
 21
91.2936
 31
0.0
  0
LINE
  8
0
 62
     1
 10
66.7205
 20
91.2936
 30
0.0
 11
67.0444
 21
91.7734
 31
0.0
  0
LINE
  8
0
 62
     1
 10
67.0444
 20
91.7734
 30
0.0
 11
67.1643
 21
92.2143
 31
0.0
  0
LINE
  8
0
 62
     1
 10
67.1643
 20
92.2143
 30
0.0
 11
67.1643
 21
92.3604
 31
0.0
  0
LINE
  8
0
 62
     1
 10
67.1643
 20
92.3604
 30
0.0
 11
67.1643
 21
92.5079
 31
0.0
  0
LINE
  8
0
 62
     1
 10
67.1643
 20
92.5079
 30
0.0
 11
67.0444
 21
92.9488
 31
0.0
  0
LINE
  8
0
 62
     1
 10
67.0444
 20
92.9488
 30
0.0
 11
66.7205
 21
93.4283
 31
0.0
  0
LINE
  8
0
 62
     1
 10
66.7205
 20
93.4283
 30
0.0
 11
66.2411
 21
93.7507
 31
0.0
  0
LINE
  8
0
 62
     1
 10
66.2411
 20
93.7507
 30
0.0
 11
65.8001
 21
93.8692
 31
0.0
  0
LINE
  8
0
 62
     1
 10
65.8001
 20
93.8692
 30
0.0
 11
65.6537
 21
93.8692
 31
0.0
  0
LINE
  8
0
 62
     1
 10
29.8524
 20
93.6914
 30
0.0
 11
29.705
 21
93.6914
 31
0.0
  0
LINE
  8
0
 62
     1
 10
29.705
 20
93.6914
 30
0.0
 11
29.264
 21
93.5729
 31
0.0
  0
LINE
  8
0
 62
     1
 10
29.264
 20
93.5729
 30
0.0
 11
28.7845
 21
93.2505
 31
0.0
  0
LINE
  8
0
 62
     1
 10
28.7845
 20
93.2505
 30
0.0
 11
28.462
 21
92.771
 31
0.0
  0
LINE
  8
0
 62
     1
 10
28.462
 20
92.771
 30
0.0
 11
28.3435
 21
92.3301
 31
0.0
  0
LINE
  8
0
 62
     1
 10
28.3435
 20
92.3301
 30
0.0
 11
28.3435
 21
92.1826
 31
0.0
  0
LINE
  8
0
 62
     1
 10
28.3435
 20
92.1826
 30
0.0
 11
28.3435
 21
92.0365
 31
0.0
  0
LINE
  8
0
 62
     1
 10
28.3435
 20
92.0365
 30
0.0
 11
28.462
 21
91.5956
 31
0.0
  0
LINE
  8
0
 62
     1
 10
28.462
 20
91.5956
 30
0.0
 11
28.7845
 21
91.1158
 31
0.0
  0
LINE
  8
0
 62
     1
 10
28.7845
 20
91.1158
 30
0.0
 11
29.264
 21
90.7934
 31
0.0
  0
LINE
  8
0
 62
     1
 10
29.264
 20
90.7934
 30
0.0
 11
29.705
 21
90.6734
 31
0.0
  0
LINE
  8
0
 62
     1
 10
29.705
 20
90.6734
 30
0.0
 11
29.8524
 21
90.6734
 31
0.0
  0
LINE
  8
0
 62
     1
 10
29.8524
 20
90.6734
 30
0.0
 11
29.9985
 21
90.6734
 31
0.0
  0
LINE
  8
0
 62
     1
 10
29.9985
 20
90.6734
 30
0.0
 11
30.4395
 21
90.7934
 31
0.0
  0
LINE
  8
0
 62
     1
 10
30.4395
 20
90.7934
 30
0.0
 11
30.919
 21
91.1158
 31
0.0
  0
LINE
  8
0
 62
     1
 10
30.919
 20
91.1158
 30
0.0
 11
31.2415
 21
91.5956
 31
0.0
  0
LINE
  8
0
 62
     1
 10
31.2415
 20
91.5956
 30
0.0
 11
31.3614
 21
92.0365
 31
0.0
  0
LINE
  8
0
 62
     1
 10
31.3614
 20
92.0365
 30
0.0
 11
31.3614
 21
92.1826
 31
0.0
  0
LINE
  8
0
 62
     1
 10
31.3614
 20
92.1826
 30
0.0
 11
31.3614
 21
92.3301
 31
0.0
  0
LINE
  8
0
 62
     1
 10
31.3614
 20
92.3301
 30
0.0
 11
31.2415
 21
92.771
 31
0.0
  0
LINE
  8
0
 62
     1
 10
31.2415
 20
92.771
 30
0.0
 11
30.919
 21
93.2505
 31
0.0
  0
LINE
  8
0
 62
     1
 10
30.919
 20
93.2505
 30
0.0
 11
30.4395
 21
93.5729
 31
0.0
  0
LINE
  8
0
 62
     1
 10
30.4395
 20
93.5729
 30
0.0
 11
29.9985
 21
93.6914
 31
0.0
  0
LINE
  8
0
 62
     1
 10
29.9985
 20
93.6914
 30
0.0
 11
29.8524
 21
93.6914
 31
0.0
  0
LINE
  8
0
 62
     1
 10
51.6805
 20
97.7427
 30
0.0
 11
51.6805
 21
97.7427
 31
0.0
  0
LINE
  8
0
 62
     1
 10
51.6805
 20
97.7427
 30
0.0
 11
51.496
 21
97.9276
 31
0.0
  0
LINE
  8
0
 62
     1
 10
51.496
 20
97.9276
 30
0.0
 11
50.9778
 21
98.4472
 31
0.0
  0
LINE
  8
0
 62
     1
 10
50.9778
 20
98.4472
 30
0.0
 11
50.1703
 21
99.2547
 31
0.0
  0
LINE
  8
0
 62
     1
 10
50.1703
 20
99.2547
 30
0.0
 11
49.1243
 21
100.302
 31
0.0
  0
LINE
  8
0
 62
     1
 10
49.1243
 20
100.302
 30
0.0
 11
47.8868
 21
101.542
 31
0.0
  0
LINE
  8
0
 62
     1
 10
47.8868
 20
101.542
 30
0.0
 11
46.5046
 21
102.924
 31
0.0
  0
LINE
  8
0
 62
     1
 10
46.5046
 20
102.924
 30
0.0
 11
45.0275
 21
104.404
 31
0.0
  0
LINE
  8
0
 62
     1
 10
45.0275
 20
104.404
 30
0.0
 11
43.5031
 21
105.931
 31
0.0
  0
LINE
  8
0
 62
     1
 10
43.5031
 20
105.931
 30
0.0
 11
41.9777
 21
107.458
 31
0.0
  0
LINE
  8
0
 62
     1
 10
41.9777
 20
107.458
 30
0.0
 11
40.5007
 21
108.938
 31
0.0
  0
LINE
  8
0
 62
     1
 10
40.5007
 20
108.938
 30
0.0
 11
39.1185
 21
110.32
 31
0.0
  0
LINE
  8
0
 62
     1
 10
39.1185
 20
110.32
 30
0.0
 11
37.8809
 21
111.56
 31
0.0
  0
LINE
  8
0
 62
     1
 10
37.8809
 20
111.56
 30
0.0
 11
36.8349
 21
112.608
 31
0.0
  0
LINE
  8
0
 62
     1
 10
36.8349
 20
112.608
 30
0.0
 11
36.0274
 21
113.415
 31
0.0
  0
LINE
  8
0
 62
     1
 10
36.0274
 20
113.415
 30
0.0
 11
35.5092
 21
113.935
 31
0.0
  0
LINE
  8
0
 62
     1
 10
35.5092
 20
113.935
 30
0.0
 11
35.3261
 21
114.118
 31
0.0
  0
LINE
  8
0
 62
     1
 10
35.3261
 20
114.118
 30
0.0
 11
35.3261
 21
114.118
 31
0.0
  0
LINE
  8
0
 62
     1
 10
35.3261
 20
114.118
 30
0.0
 11
35.3261
 21
114.118
 31
0.0
  0
LINE
  8
0
 62
     1
 10
35.3261
 20
114.118
 30
0.0
 11
35.6979
 21
114.492
 31
0.0
  0
LINE
  8
0
 62
     1
 10
35.6979
 20
114.492
 30
0.0
 11
36.6818
 21
115.474
 31
0.0
  0
LINE
  8
0
 62
     1
 10
36.6818
 20
115.474
 30
0.0
 11
38.0739
 21
116.863
 31
0.0
  0
LINE
  8
0
 62
     1
 10
38.0739
 20
116.863
 30
0.0
 11
39.6681
 21
118.456
 31
0.0
  0
LINE
  8
0
 62
     1
 10
39.6681
 20
118.456
 30
0.0
 11
41.2627
 21
120.049
 31
0.0
  0
LINE
  8
0
 62
     1
 10
41.2627
 20
120.049
 30
0.0
 11
42.6544
 21
121.438
 31
0.0
  0
LINE
  8
0
 62
     1
 10
42.6544
 20
121.438
 30
0.0
 11
43.6383
 21
122.421
 31
0.0
  0
LINE
  8
0
 62
     1
 10
43.6383
 20
122.421
 30
0.0
 11
44.0119
 21
122.793
 31
0.0
  0
LINE
  8
0
 62
     1
 10
44.0119
 20
122.793
 30
0.0
 11
44.0119
 21
122.793
 31
0.0
  0
LINE
  8
0
 62
     1
 10
44.0119
 20
122.793
 30
0.0
 11
44.0119
 21
122.793
 31
0.0
  0
LINE
  8
0
 62
     1
 10
44.0119
 20
122.793
 30
0.0
 11
44.1949
 21
122.61
 31
0.0
  0
LINE
  8
0
 62
     1
 10
44.1949
 20
122.61
 30
0.0
 11
44.7132
 21
122.09
 31
0.0
  0
LINE
  8
0
 62
     1
 10
44.7132
 20
122.09
 30
0.0
 11
45.5207
 21
121.283
 31
0.0
  0
LINE
  8
0
 62
     1
 10
45.5207
 20
121.283
 30
0.0
 11
46.5667
 21
120.235
 31
0.0
  0
LINE
  8
0
 62
     1
 10
46.5667
 20
120.235
 30
0.0
 11
47.8042
 21
118.995
 31
0.0
  0
LINE
  8
0
 62
     1
 10
47.8042
 20
118.995
 30
0.0
 11
49.1864
 21
117.613
 31
0.0
  0
LINE
  8
0
 62
     1
 10
49.1864
 20
117.613
 30
0.0
 11
50.6635
 21
116.133
 31
0.0
  0
LINE
  8
0
 62
     1
 10
50.6635
 20
116.133
 30
0.0
 11
52.1892
 21
114.606
 31
0.0
  0
LINE
  8
0
 62
     1
 10
52.1892
 20
114.606
 30
0.0
 11
53.7132
 21
113.079
 31
0.0
  0
LINE
  8
0
 62
     1
 10
53.7132
 20
113.079
 30
0.0
 11
55.1903
 21
111.599
 31
0.0
  0
LINE
  8
0
 62
     1
 10
55.1903
 20
111.599
 30
0.0
 11
56.5725
 21
110.217
 31
0.0
  0
LINE
  8
0
 62
     1
 10
56.5725
 20
110.217
 30
0.0
 11
57.81
 21
108.977
 31
0.0
  0
LINE
  8
0
 62
     1
 10
57.81
 20
108.977
 30
0.0
 11
58.856
 21
107.929
 31
0.0
  0
LINE
  8
0
 62
     1
 10
58.856
 20
107.929
 30
0.0
 11
59.6635
 21
107.122
 31
0.0
  0
LINE
  8
0
 62
     1
 10
59.6635
 20
107.122
 30
0.0
 11
60.1818
 21
106.602
 31
0.0
  0
LINE
  8
0
 62
     1
 10
60.1818
 20
106.602
 30
0.0
 11
60.3663
 21
106.418
 31
0.0
  0
LINE
  8
0
 62
     1
 10
60.3663
 20
106.418
 30
0.0
 11
60.3663
 21
106.418
 31
0.0
  0
LINE
  8
0
 62
     1
 10
60.3663
 20
106.418
 30
0.0
 11
60.3663
 21
106.418
 31
0.0
  0
LINE
  8
0
 62
     1
 10
60.3663
 20
106.418
 30
0.0
 11
59.993
 21
106.046
 31
0.0
  0
LINE
  8
0
 62
     1
 10
59.993
 20
106.046
 30
0.0
 11
59.0091
 21
105.063
 31
0.0
  0
LINE
  8
0
 62
     1
 10
59.0091
 20
105.063
 30
0.0
 11
57.6171
 21
103.674
 31
0.0
  0
LINE
  8
0
 62
     1
 10
57.6171
 20
103.674
 30
0.0
 11
56.0229
 21
102.081
 31
0.0
  0
LINE
  8
0
 62
     1
 10
56.0229
 20
102.081
 30
0.0
 11
54.4283
 21
100.488
 31
0.0
  0
LINE
  8
0
 62
     1
 10
54.4283
 20
100.488
 30
0.0
 11
53.0366
 21
99.0988
 31
0.0
  0
LINE
  8
0
 62
     1
 10
53.0366
 20
99.0988
 30
0.0
 11
52.0527
 21
98.1163
 31
0.0
  0
LINE
  8
0
 62
     1
 10
52.0527
 20
98.1163
 30
0.0
 11
51.6805
 21
97.7427
 31
0.0
  0
LINE
  8
0
 62
     1
 10
51.6805
 20
97.7427
 30
0.0
 11
51.6805
 21
97.7427
 31
0.0
  0
LINE
  8
0
 62
     1
 10
54.2685
 20
116.935
 30
0.0
 11
54.398
 21
117.066
 31
0.0
  0
LINE
  8
0
 62
     1
 10
54.398
 20
117.066
 30
0.0
 11
54.6587
 21
117.879
 31
0.0
  0
LINE
  8
0
 62
     1
 10
54.6587
 20
117.879
 30
0.0
 11
54.398
 21
118.69
 31
0.0
  0
LINE
  8
0
 62
     1
 10
54.398
 20
118.69
 30
0.0
 11
54.2685
 21
118.82
 31
0.0
  0
LINE
  8
0
 62
     1
 10
54.2685
 20
118.82
 30
0.0
 11
54.1376
 21
118.951
 31
0.0
  0
LINE
  8
0
 62
     1
 10
54.1376
 20
118.951
 30
0.0
 11
53.3259
 21
119.213
 31
0.0
  0
LINE
  8
0
 62
     1
 10
53.3259
 20
119.213
 30
0.0
 11
52.5127
 21
118.951
 31
0.0
  0
LINE
  8
0
 62
     1
 10
52.5127
 20
118.951
 30
0.0
 11
52.3833
 21
118.82
 31
0.0
  0
LINE
  8
0
 62
     1
 10
52.3833
 20
118.82
 30
0.0
 11
52.2524
 21
118.69
 31
0.0
  0
LINE
  8
0
 62
     1
 10
52.2524
 20
118.69
 30
0.0
 11
51.992
 21
117.879
 31
0.0
  0
LINE
  8
0
 62
     1
 10
51.992
 20
117.879
 30
0.0
 11
52.2524
 21
117.066
 31
0.0
  0
LINE
  8
0
 62
     1
 10
52.2524
 20
117.066
 30
0.0
 11
52.3833
 21
116.935
 31
0.0
  0
LINE
  8
0
 62
     1
 10
52.3833
 20
116.935
 30
0.0
 11
52.5127
 21
116.805
 31
0.0
  0
LINE
  8
0
 62
     1
 10
52.5127
 20
116.805
 30
0.0
 11
53.3259
 21
116.545
 31
0.0
  0
LINE
  8
0
 62
     1
 10
53.3259
 20
116.545
 30
0.0
 11
54.1376
 21
116.805
 31
0.0
  0
LINE
  8
0
 62
     1
 10
54.1376
 20
116.805
 30
0.0
 11
54.2685
 21
116.935
 31
0.0
  0
LINE
  8
0
 62
     1
 10
42.1735
 20
102.715
 30
0.0
 11
42.303
 21
102.846
 31
0.0
  0
LINE
  8
0
 62
     1
 10
42.303
 20
102.846
 30
0.0
 11
42.5633
 21
103.657
 31
0.0
  0
LINE
  8
0
 62
     1
 10
42.5633
 20
103.657
 30
0.0
 11
42.303
 21
104.471
 31
0.0
  0
LINE
  8
0
 62
     1
 10
42.303
 20
104.471
 30
0.0
 11
42.1735
 21
104.6
 31
0.0
  0
LINE
  8
0
 62
     1
 10
42.1735
 20
104.6
 30
0.0
 11
42.0426
 21
104.731
 31
0.0
  0
LINE
  8
0
 62
     1
 10
42.0426
 20
104.731
 30
0.0
 11
41.2295
 21
104.993
 31
0.0
  0
LINE
  8
0
 62
     1
 10
41.2295
 20
104.993
 30
0.0
 11
40.4163
 21
104.731
 31
0.0
  0
LINE
  8
0
 62
     1
 10
40.4163
 20
104.731
 30
0.0
 11
40.2869
 21
104.6
 31
0.0
  0
LINE
  8
0
 62
     1
 10
40.2869
 20
104.6
 30
0.0
 11
40.156
 21
104.471
 31
0.0
  0
LINE
  8
0
 62
     1
 10
40.156
 20
104.471
 30
0.0
 11
39.8956
 21
103.659
 31
0.0
  0
LINE
  8
0
 62
     1
 10
39.8956
 20
103.659
 30
0.0
 11
40.156
 21
102.846
 31
0.0
  0
LINE
  8
0
 62
     1
 10
40.156
 20
102.846
 30
0.0
 11
40.2869
 21
102.715
 31
0.0
  0
LINE
  8
0
 62
     1
 10
40.2869
 20
102.715
 30
0.0
 11
40.4163
 21
102.585
 31
0.0
  0
LINE
  8
0
 62
     1
 10
40.4163
 20
102.585
 30
0.0
 11
41.2295
 21
102.325
 31
0.0
  0
LINE
  8
0
 62
     1
 10
41.2295
 20
102.325
 30
0.0
 11
42.0426
 21
102.582
 31
0.0
  0
LINE
  8
0
 62
     1
 10
42.0426
 20
102.582
 30
0.0
 11
42.1735
 21
102.712
 31
0.0
  0
LINE
  8
0
 62
     1
 10
42.1735
 20
102.712
 30
0.0
 11
42.1735
 21
102.715
 31
0.0
  0
LINE
  8
0
 62
     1
 10
74.0364
 20
109.272
 30
0.0
 11
74.1659
 21
109.402
 31
0.0
  0
LINE
  8
0
 62
     1
 10
74.1659
 20
109.402
 30
0.0
 11
74.4266
 21
110.214
 31
0.0
  0
LINE
  8
0
 62
     1
 10
74.4266
 20
110.214
 30
0.0
 11
74.1659
 21
111.027
 31
0.0
  0
LINE
  8
0
 62
     1
 10
74.1659
 20
111.027
 30
0.0
 11
74.0364
 21
111.157
 31
0.0
  0
LINE
  8
0
 62
     1
 10
74.0364
 20
111.157
 30
0.0
 11
73.9055
 21
111.288
 31
0.0
  0
LINE
  8
0
 62
     1
 10
73.9055
 20
111.288
 30
0.0
 11
73.0938
 21
111.548
 31
0.0
  0
LINE
  8
0
 62
     1
 10
73.0938
 20
111.548
 30
0.0
 11
72.281
 21
111.288
 31
0.0
  0
LINE
  8
0
 62
     1
 10
72.281
 20
111.288
 30
0.0
 11
72.1512
 21
111.157
 31
0.0
  0
LINE
  8
0
 62
     1
 10
72.1512
 20
111.157
 30
0.0
 11
72.0203
 21
111.027
 31
0.0
  0
LINE
  8
0
 62
     1
 10
72.0203
 20
111.027
 30
0.0
 11
71.7599
 21
110.214
 31
0.0
  0
LINE
  8
0
 62
     1
 10
71.7599
 20
110.214
 30
0.0
 11
72.0203
 21
109.402
 31
0.0
  0
LINE
  8
0
 62
     1
 10
72.0203
 20
109.402
 30
0.0
 11
72.1512
 21
109.272
 31
0.0
  0
LINE
  8
0
 62
     1
 10
72.1512
 20
109.272
 30
0.0
 11
72.281
 21
109.142
 31
0.0
  0
LINE
  8
0
 62
     1
 10
72.281
 20
109.142
 30
0.0
 11
73.0938
 21
108.882
 31
0.0
  0
LINE
  8
0
 62
     1
 10
73.0938
 20
108.882
 30
0.0
 11
73.9069
 21
109.142
 31
0.0
  0
LINE
  8
0
 62
     1
 10
73.9069
 20
109.142
 30
0.0
 11
74.0378
 21
109.272
 31
0.0
  0
LINE
  8
0
 62
     1
 10
74.0378
 20
109.272
 30
0.0
 11
74.0364
 21
109.272
 31
0.0
  0
LINE
  8
0
 62
     1
 10
48.8474
 20
83.8274
 30
0.0
 11
48.9768
 21
83.9583
 31
0.0
  0
LINE
  8
0
 62
     1
 10
48.9768
 20
83.9583
 30
0.0
 11
49.2372
 21
84.7714
 31
0.0
  0
LINE
  8
0
 62
     1
 10
49.2372
 20
84.7714
 30
0.0
 11
48.9768
 21
85.5846
 31
0.0
  0
LINE
  8
0
 62
     1
 10
48.9768
 20
85.5846
 30
0.0
 11
48.8474
 21
85.7141
 31
0.0
  0
LINE
  8
0
 62
     1
 10
48.8474
 20
85.7141
 30
0.0
 11
48.7165
 21
85.8449
 31
0.0
  0
LINE
  8
0
 62
     1
 10
48.7165
 20
85.8449
 30
0.0
 11
47.9048
 21
86.1053
 31
0.0
  0
LINE
  8
0
 62
     1
 10
47.9048
 20
86.1053
 30
0.0
 11
47.0916
 21
85.8464
 31
0.0
  0
LINE
  8
0
 62
     1
 10
47.0916
 20
85.8464
 30
0.0
 11
46.9621
 21
85.7169
 31
0.0
  0
LINE
  8
0
 62
     1
 10
46.9621
 20
85.7169
 30
0.0
 11
46.8313
 21
85.5871
 31
0.0
  0
LINE
  8
0
 62
     1
 10
46.8313
 20
85.5871
 30
0.0
 11
46.5709
 21
84.7743
 31
0.0
  0
LINE
  8
0
 62
     1
 10
46.5709
 20
84.7743
 30
0.0
 11
46.8313
 21
83.9611
 31
0.0
  0
LINE
  8
0
 62
     1
 10
46.8313
 20
83.9611
 30
0.0
 11
46.9621
 21
83.8302
 31
0.0
  0
LINE
  8
0
 62
     1
 10
46.9621
 20
83.8302
 30
0.0
 11
47.0916
 21
83.7008
 31
0.0
  0
LINE
  8
0
 62
     1
 10
47.0916
 20
83.7008
 30
0.0
 11
47.9048
 21
83.4401
 31
0.0
  0
LINE
  8
0
 62
     1
 10
47.9048
 20
83.4401
 30
0.0
 11
48.7179
 21
83.7008
 31
0.0
  0
LINE
  8
0
 62
     1
 10
48.7179
 20
83.7008
 30
0.0
 11
48.8488
 21
83.8302
 31
0.0
  0
LINE
  8
0
 62
     1
 10
48.8488
 20
83.8302
 30
0.0
 11
48.8474
 21
83.8274
 31
0.0
  0
LINE
  8
0
 62
     1
 10
22.943
 20
109.215
 30
0.0
 11
23.0725
 21
109.346
 31
0.0
  0
LINE
  8
0
 62
     1
 10
23.0725
 20
109.346
 30
0.0
 11
23.3329
 21
110.158
 31
0.0
  0
LINE
  8
0
 62
     1
 10
23.3329
 20
110.158
 30
0.0
 11
23.0725
 21
110.971
 31
0.0
  0
LINE
  8
0
 62
     1
 10
23.0725
 20
110.971
 30
0.0
 11
22.943
 21
111.1
 31
0.0
  0
LINE
  8
0
 62
     1
 10
22.943
 20
111.1
 30
0.0
 11
22.8121
 21
111.231
 31
0.0
  0
LINE
  8
0
 62
     1
 10
22.8121
 20
111.231
 30
0.0
 11
22.0004
 21
111.492
 31
0.0
  0
LINE
  8
0
 62
     1
 10
22.0004
 20
111.492
 30
0.0
 11
21.1873
 21
111.231
 31
0.0
  0
LINE
  8
0
 62
     1
 10
21.1873
 20
111.231
 30
0.0
 11
21.0578
 21
111.1
 31
0.0
  0
LINE
  8
0
 62
     1
 10
21.0578
 20
111.1
 30
0.0
 11
20.9269
 21
110.971
 31
0.0
  0
LINE
  8
0
 62
     1
 10
20.9269
 20
110.971
 30
0.0
 11
20.6664
 21
110.159
 31
0.0
  0
LINE
  8
0
 62
     1
 10
20.6664
 20
110.159
 30
0.0
 11
20.9269
 21
109.346
 31
0.0
  0
LINE
  8
0
 62
     1
 10
20.9269
 20
109.346
 30
0.0
 11
21.0578
 21
109.215
 31
0.0
  0
LINE
  8
0
 62
     1
 10
21.0578
 20
109.215
 30
0.0
 11
21.1873
 21
109.086
 31
0.0
  0
LINE
  8
0
 62
     1
 10
21.1873
 20
109.086
 30
0.0
 11
21.999
 21
108.825
 31
0.0
  0
LINE
  8
0
 62
     1
 10
21.999
 20
108.825
 30
0.0
 11
22.8121
 21
109.086
 31
0.0
  0
LINE
  8
0
 62
     1
 10
22.8121
 20
109.086
 30
0.0
 11
22.943
 21
109.215
 31
0.0
  0
LINE
  8
0
 62
     1
 10
48.8819
 20
134.426
 30
0.0
 11
49.0114
 21
134.557
 31
0.0
  0
LINE
  8
0
 62
     1
 10
49.0114
 20
134.557
 30
0.0
 11
49.2718
 21
135.369
 31
0.0
  0
LINE
  8
0
 62
     1
 10
49.2718
 20
135.369
 30
0.0
 11
49.0114
 21
136.182
 31
0.0
  0
LINE
  8
0
 62
     1
 10
49.0114
 20
136.182
 30
0.0
 11
48.8819
 21
136.312
 31
0.0
  0
LINE
  8
0
 62
     1
 10
48.8819
 20
136.312
 30
0.0
 11
48.7507
 21
136.442
 31
0.0
  0
LINE
  8
0
 62
     1
 10
48.7507
 20
136.442
 30
0.0
 11
47.9393
 21
136.703
 31
0.0
  0
LINE
  8
0
 62
     1
 10
47.9393
 20
136.703
 30
0.0
 11
47.1262
 21
136.442
 31
0.0
  0
LINE
  8
0
 62
     1
 10
47.1262
 20
136.442
 30
0.0
 11
46.9967
 21
136.312
 31
0.0
  0
LINE
  8
0
 62
     1
 10
46.9967
 20
136.312
 30
0.0
 11
46.8658
 21
136.182
 31
0.0
  0
LINE
  8
0
 62
     1
 10
46.8658
 20
136.182
 30
0.0
 11
46.6051
 21
135.37
 31
0.0
  0
LINE
  8
0
 62
     1
 10
46.6051
 20
135.37
 30
0.0
 11
46.8658
 21
134.557
 31
0.0
  0
LINE
  8
0
 62
     1
 10
46.8658
 20
134.557
 30
0.0
 11
46.9967
 21
134.426
 31
0.0
  0
LINE
  8
0
 62
     1
 10
46.9967
 20
134.426
 30
0.0
 11
47.1262
 21
134.297
 31
0.0
  0
LINE
  8
0
 62
     1
 10
47.1262
 20
134.297
 30
0.0
 11
47.9379
 21
134.036
 31
0.0
  0
LINE
  8
0
 62
     1
 10
47.9379
 20
134.036
 30
0.0
 11
48.7507
 21
134.294
 31
0.0
  0
LINE
  8
0
 62
     1
 10
48.7507
 20
134.294
 30
0.0
 11
48.8819
 21
134.424
 31
0.0
  0
LINE
  8
0
 62
     1
 10
48.8819
 20
134.424
 30
0.0
 11
48.8819
 21
134.426
 31
0.0
  0
LINE
  8
0
 62
     1
 10
20.0574
 20
112.058
 30
0.0
 11
19.9402
 21
111.933
 31
0.0
  0
LINE
  8
0
 62
     1
 10
19.9402
 20
111.933
 30
0.0
 11
19.8217
 21
111.815
 31
0.0
  0
LINE
  8
0
 62
     1
 10
19.8217
 20
111.815
 30
0.0
 11
19.4551
 21
111.183
 31
0.0
  0
LINE
  8
0
 62
     1
 10
19.4551
 20
111.183
 30
0.0
 11
19.3215
 21
110.453
 31
0.0
  0
LINE
  8
0
 62
     1
 10
19.3215
 20
110.453
 30
0.0
 11
19.3215
 21
110.286
 31
0.0
  0
LINE
  8
0
 62
     1
 10
19.3215
 20
110.286
 30
0.0
 11
19.3215
 21
110.047
 31
0.0
  0
LINE
  8
0
 62
     1
 10
19.3215
 20
110.047
 30
0.0
 11
19.5116
 21
109.328
 31
0.0
  0
LINE
  8
0
 62
     1
 10
19.5116
 20
109.328
 30
0.0
 11
19.9374
 21
108.632
 31
0.0
  0
LINE
  8
0
 62
     1
 10
19.9374
 20
108.632
 30
0.0
 11
20.0546
 21
108.514
 31
0.0
  0
LINE
  8
0
 62
     1
 10
20.0546
 20
108.514
 30
0.0
 11
20.0546
 21
108.514
 31
0.0
  0
LINE
  8
0
 62
     1
 10
20.0546
 20
108.514
 30
0.0
 11
20.3454
 21
108.223
 31
0.0
  0
LINE
  8
0
 62
     1
 10
20.3454
 20
108.223
 30
0.0
 11
21.1708
 21
107.396
 31
0.0
  0
LINE
  8
0
 62
     1
 10
21.1708
 20
107.396
 30
0.0
 11
22.451
 21
106.114
 31
0.0
  0
LINE
  8
0
 62
     1
 10
22.451
 20
106.114
 30
0.0
 11
24.1129
 21
104.45
 31
0.0
  0
LINE
  8
0
 62
     1
 10
24.1129
 20
104.45
 30
0.0
 11
26.0794
 21
102.482
 31
0.0
  0
LINE
  8
0
 62
     1
 10
26.0794
 20
102.482
 30
0.0
 11
28.2732
 21
100.284
 31
0.0
  0
LINE
  8
0
 62
     1
 10
28.2732
 20
100.284
 30
0.0
 11
30.62
 21
97.9343
 31
0.0
  0
LINE
  8
0
 62
     1
 10
30.62
 20
97.9343
 30
0.0
 11
33.044
 21
95.5075
 31
0.0
  0
LINE
  8
0
 62
     1
 10
33.044
 20
95.5075
 30
0.0
 11
35.4665
 21
93.0822
 31
0.0
  0
LINE
  8
0
 62
     1
 10
35.4665
 20
93.0822
 30
0.0
 11
37.8135
 21
90.7327
 31
0.0
  0
LINE
  8
0
 62
     1
 10
37.8135
 20
90.7327
 30
0.0
 11
40.0071
 21
88.5349
 31
0.0
  0
LINE
  8
0
 62
     1
 10
40.0071
 20
88.5349
 30
0.0
 11
41.9735
 21
86.5671
 31
0.0
  0
LINE
  8
0
 62
     1
 10
41.9735
 20
86.5671
 30
0.0
 11
43.6354
 21
84.9023
 31
0.0
  0
LINE
  8
0
 62
     1
 10
43.6354
 20
84.9023
 30
0.0
 11
44.9157
 21
83.6207
 31
0.0
  0
LINE
  8
0
 62
     1
 10
44.9157
 20
83.6207
 30
0.0
 11
45.7412
 21
82.7938
 31
0.0
  0
LINE
  8
0
 62
     1
 10
45.7412
 20
82.7938
 30
0.0
 11
46.0333
 21
82.5017
 31
0.0
  0
LINE
  8
0
 62
     1
 10
46.0333
 20
82.5017
 30
0.0
 11
46.0333
 21
82.5017
 31
0.0
  0
LINE
  8
0
 62
     1
 10
46.0333
 20
82.5017
 30
0.0
 11
46.1504
 21
82.3845
 31
0.0
  0
LINE
  8
0
 62
     1
 10
46.1504
 20
82.3845
 30
0.0
 11
46.8464
 21
81.9587
 31
0.0
  0
LINE
  8
0
 62
     1
 10
46.8464
 20
81.9587
 30
0.0
 11
47.6388
 21
81.7672
 31
0.0
  0
LINE
  8
0
 62
     1
 10
47.6388
 20
81.7672
 30
0.0
 11
47.8056
 21
81.7658
 31
0.0
  0
LINE
  8
0
 62
     1
 10
47.8056
 20
81.7658
 30
0.0
 11
48.0452
 21
81.7658
 31
0.0
  0
LINE
  8
0
 62
     1
 10
48.0452
 20
81.7658
 30
0.0
 11
48.7645
 21
81.9573
 31
0.0
  0
LINE
  8
0
 62
     1
 10
48.7645
 20
81.9573
 30
0.0
 11
49.4605
 21
82.3817
 31
0.0
  0
LINE
  8
0
 62
     1
 10
49.4605
 20
82.3817
 30
0.0
 11
49.579
 21
82.4988
 31
0.0
  0
LINE
  8
0
 62
     1
 10
49.579
 20
82.4988
 30
0.0
 11
49.579
 21
82.4988
 31
0.0
  0
LINE
  8
0
 62
     1
 10
49.579
 20
82.4988
 30
0.0
 11
49.8697
 21
82.7913
 31
0.0
  0
LINE
  8
0
 62
     1
 10
49.8697
 20
82.7913
 30
0.0
 11
50.6966
 21
83.6164
 31
0.0
  0
LINE
  8
0
 62
     1
 10
50.6966
 20
83.6164
 30
0.0
 11
51.9783
 21
84.8967
 31
0.0
  0
LINE
  8
0
 62
     1
 10
51.9783
 20
84.8967
 30
0.0
 11
53.643
 21
86.5586
 31
0.0
  0
LINE
  8
0
 62
     1
 10
53.643
 20
86.5586
 30
0.0
 11
55.6108
 21
88.5254
 31
0.0
  0
LINE
  8
0
 62
     1
 10
55.6108
 20
88.5254
 30
0.0
 11
57.8086
 21
90.7203
 31
0.0
  0
LINE
  8
0
 62
     1
 10
57.8086
 20
90.7203
 30
0.0
 11
60.1581
 21
93.0674
 31
0.0
  0
LINE
  8
0
 62
     1
 10
60.1581
 20
93.0674
 30
0.0
 11
62.5835
 21
95.4899
 31
0.0
  0
LINE
  8
0
 62
     1
 10
62.5835
 20
95.4899
 30
0.0
 11
65.0088
 21
97.9124
 31
0.0
  0
LINE
  8
0
 62
     1
 10
65.0088
 20
97.9124
 30
0.0
 11
67.3587
 21
100.259
 31
0.0
  0
LINE
  8
0
 62
     1
 10
67.3587
 20
100.259
 30
0.0
 11
69.5565
 21
102.454
 31
0.0
  0
LINE
  8
0
 62
     1
 10
69.5565
 20
102.454
 30
0.0
 11
71.5243
 21
104.421
 31
0.0
  0
LINE
  8
0
 62
     1
 10
71.5243
 20
104.421
 30
0.0
 11
73.189
 21
106.083
 31
0.0
  0
LINE
  8
0
 62
     1
 10
73.189
 20
106.083
 30
0.0
 11
74.4707
 21
107.363
 31
0.0
  0
LINE
  8
0
 62
     1
 10
74.4707
 20
107.363
 30
0.0
 11
75.2972
 21
108.188
 31
0.0
  0
LINE
  8
0
 62
     1
 10
75.2972
 20
108.188
 30
0.0
 11
75.5897
 21
108.479
 31
0.0
  0
LINE
  8
0
 62
     1
 10
75.5897
 20
108.479
 30
0.0
 11
75.5897
 21
108.479
 31
0.0
  0
LINE
  8
0
 62
     1
 10
75.5897
 20
108.479
 30
0.0
 11
75.7618
 21
108.651
 31
0.0
  0
LINE
  8
0
 62
     1
 10
75.7618
 20
108.651
 30
0.0
 11
76.1531
 21
109.294
 31
0.0
  0
LINE
  8
0
 62
     1
 10
76.1531
 20
109.294
 30
0.0
 11
76.3683
 21
110.206
 31
0.0
  0
LINE
  8
0
 62
     1
 10
76.3683
 20
110.206
 30
0.0
 11
76.2152
 21
111.117
 31
0.0
  0
LINE
  8
0
 62
     1
 10
76.2152
 20
111.117
 30
0.0
 11
75.8472
 21
111.763
 31
0.0
  0
LINE
  8
0
 62
     1
 10
75.8472
 20
111.763
 30
0.0
 11
75.6789
 21
111.931
 31
0.0
  0
LINE
  8
0
 62
     1
 10
75.6789
 20
111.931
 30
0.0
 11
75.5922
 21
112.024
 31
0.0
  0
LINE
  8
0
 62
     1
 10
75.5922
 20
112.024
 30
0.0
 11
75.5922
 21
112.024
 31
0.0
  0
LINE
  8
0
 62
     1
 10
75.5922
 20
112.024
 30
0.0
 11
75.3001
 21
112.316
 31
0.0
  0
LINE
  8
0
 62
     1
 10
75.3001
 20
112.316
 30
0.0
 11
74.4746
 21
113.143
 31
0.0
  0
LINE
  8
0
 62
     1
 10
74.4746
 20
113.143
 30
0.0
 11
73.1943
 21
114.424
 31
0.0
  0
LINE
  8
0
 62
     1
 10
73.1943
 20
114.424
 30
0.0
 11
71.5328
 21
116.089
 31
0.0
  0
LINE
  8
0
 62
     1
 10
71.5328
 20
116.089
 30
0.0
 11
69.566
 21
118.056
 31
0.0
  0
LINE
  8
0
 62
     1
 10
69.566
 20
118.056
 30
0.0
 11
67.3724
 21
120.255
 31
0.0
  0
LINE
  8
0
 62
     1
 10
67.3724
 20
120.255
 30
0.0
 11
65.0254
 21
122.604
 31
0.0
  0
LINE
  8
0
 62
     1
 10
65.0254
 20
122.604
 30
0.0
 11
62.6029
 21
125.029
 31
0.0
  0
LINE
  8
0
 62
     1
 10
62.6029
 20
125.029
 30
0.0
 11
60.1789
 21
127.455
 31
0.0
  0
LINE
  8
0
 62
     1
 10
60.1789
 20
127.455
 30
0.0
 11
57.8323
 21
129.804
 31
0.0
  0
LINE
  8
0
 62
     1
 10
57.8323
 20
129.804
 30
0.0
 11
55.6383
 21
132.002
 31
0.0
  0
LINE
  8
0
 62
     1
 10
55.6383
 20
132.002
 30
0.0
 11
53.672
 21
133.97
 31
0.0
  0
LINE
  8
0
 62
     1
 10
53.672
 20
133.97
 30
0.0
 11
52.01
 21
135.635
 31
0.0
  0
LINE
  8
0
 62
     1
 10
52.01
 20
135.635
 30
0.0
 11
50.7298
 21
136.916
 31
0.0
  0
LINE
  8
0
 62
     1
 10
50.7298
 20
136.916
 30
0.0
 11
49.9043
 21
137.743
 31
0.0
  0
LINE
  8
0
 62
     1
 10
49.9043
 20
137.743
 30
0.0
 11
49.6136
 21
138.034
 31
0.0
  0
LINE
  8
0
 62
     1
 10
49.6136
 20
138.034
 30
0.0
 11
49.6136
 21
138.034
 31
0.0
  0
LINE
  8
0
 62
     1
 10
49.6136
 20
138.034
 30
0.0
 11
49.4951
 21
138.152
 31
0.0
  0
LINE
  8
0
 62
     1
 10
49.4951
 20
138.152
 30
0.0
 11
48.799
 21
138.58
 31
0.0
  0
LINE
  8
0
 62
     1
 10
48.799
 20
138.58
 30
0.0
 11
48.0797
 21
138.77
 31
0.0
  0
LINE
  8
0
 62
     1
 10
48.0797
 20
138.77
 30
0.0
 11
47.8413
 21
138.77
 31
0.0
  0
LINE
  8
0
 62
     1
 10
47.8413
 20
138.77
 30
0.0
 11
47.6003
 21
138.77
 31
0.0
  0
LINE
  8
0
 62
     1
 10
47.6003
 20
138.77
 30
0.0
 11
46.881
 21
138.58
 31
0.0
  0
LINE
  8
0
 62
     1
 10
46.881
 20
138.58
 30
0.0
 11
46.185
 21
138.155
 31
0.0
  0
LINE
  8
0
 62
     1
 10
46.185
 20
138.155
 30
0.0
 11
46.0678
 21
138.037
 31
0.0
  0
LINE
  8
0
 62
     1
 10
46.0678
 20
138.037
 30
0.0
 11
46.0678
 21
138.037
 31
0.0
  0
LINE
  8
0
 62
     1
 10
46.0678
 20
138.037
 30
0.0
 11
45.7757
 21
137.746
 31
0.0
  0
LINE
  8
0
 62
     1
 10
45.7757
 20
137.746
 30
0.0
 11
44.9488
 21
136.92
 31
0.0
  0
LINE
  8
0
 62
     1
 10
44.9488
 20
136.92
 30
0.0
 11
43.6672
 21
135.64
 31
0.0
  0
LINE
  8
0
 62
     1
 10
43.6672
 20
135.64
 30
0.0
 11
42.0028
 21
133.978
 31
0.0
  0
LINE
  8
0
 62
     1
 10
42.0028
 20
133.978
 30
0.0
 11
40.0346
 21
132.012
 31
0.0
  0
LINE
  8
0
 62
     1
 10
40.0346
 20
132.012
 30
0.0
 11
37.8368
 21
129.818
 31
0.0
  0
LINE
  8
0
 62
     1
 10
37.8368
 20
129.818
 30
0.0
 11
35.4873
 21
127.471
 31
0.0
  0
LINE
  8
0
 62
     1
 10
35.4873
 20
127.471
 30
0.0
 11
33.0619
 21
125.047
 31
0.0
  0
LINE
  8
0
 62
     1
 10
33.0619
 20
125.047
 30
0.0
 11
30.6366
 21
122.625
 31
0.0
  0
LINE
  8
0
 62
     1
 10
30.6366
 20
122.625
 30
0.0
 11
28.287
 21
120.278
 31
0.0
  0
LINE
  8
0
 62
     1
 10
28.287
 20
120.278
 30
0.0
 11
26.089
 21
118.084
 31
0.0
  0
LINE
  8
0
 62
     1
 10
26.089
 20
118.084
 30
0.0
 11
24.1212
 21
116.118
 31
0.0
  0
LINE
  8
0
 62
     1
 10
24.1212
 20
116.118
 30
0.0
 11
22.4565
 21
114.456
 31
0.0
  0
LINE
  8
0
 62
     1
 10
22.4565
 20
114.456
 30
0.0
 11
21.1749
 21
113.176
 31
0.0
  0
LINE
  8
0
 62
     1
 10
21.1749
 20
113.176
 30
0.0
 11
20.3481
 21
112.35
 31
0.0
  0
LINE
  8
0
 62
     1
 10
20.3481
 20
112.35
 30
0.0
 11
20.0574
 21
112.058
 31
0.0
  0
LINE
  8
0
 62
     1
 10
20.0574
 20
112.058
 30
0.0
 11
20.0574
 21
112.058
 31
0.0
  0
LINE
  8
0
 62
     1
 10
17.5755
 20
60.5123
 30
0.0
 11
17.5755
 21
60.5123
 31
0.0
  0
LINE
  8
0
 62
     1
 10
17.5755
 20
60.5123
 30
0.0
 11
17.5755
 21
59.5189
 31
0.0
  0
LINE
  8
0
 62
     1
 10
17.5755
 20
59.5189
 30
0.0
 11
17.5755
 21
56.8964
 31
0.0
  0
LINE
  8
0
 62
     1
 10
17.5755
 20
56.8964
 30
0.0
 11
17.5755
 21
53.1908
 31
0.0
  0
LINE
  8
0
 62
     1
 10
17.5755
 20
53.1908
 30
0.0
 11
17.5755
 21
48.9409
 31
0.0
  0
LINE
  8
0
 62
     1
 10
17.5755
 20
48.9409
 30
0.0
 11
17.5755
 21
44.6927
 31
0.0
  0
LINE
  8
0
 62
     1
 10
17.5755
 20
44.6927
 30
0.0
 11
17.5755
 21
40.9871
 31
0.0
  0
LINE
  8
0
 62
     1
 10
17.5755
 20
40.9871
 30
0.0
 11
17.5755
 21
38.3646
 31
0.0
  0
LINE
  8
0
 62
     1
 10
17.5755
 20
38.3646
 30
0.0
 11
17.5755
 21
37.3698
 31
0.0
  0
LINE
  8
0
 62
     1
 10
17.5755
 20
37.3698
 30
0.0
 11
17.5755
 21
37.3698
 31
0.0
  0
LINE
  8
0
 62
     1
 10
17.5755
 20
37.3698
 30
0.0
 11
17.5755
 21
37.3698
 31
0.0
  0
LINE
  8
0
 62
     1
 10
17.5755
 20
37.3698
 30
0.0
 11
18.1115
 21
37.3698
 31
0.0
  0
LINE
  8
0
 62
     1
 10
18.1115
 20
37.3698
 30
0.0
 11
19.5241
 21
37.3698
 31
0.0
  0
LINE
  8
0
 62
     1
 10
19.5241
 20
37.3698
 30
0.0
 11
21.5222
 21
37.3698
 31
0.0
  0
LINE
  8
0
 62
     1
 10
21.5222
 20
37.3698
 30
0.0
 11
23.8139
 21
37.3698
 31
0.0
  0
LINE
  8
0
 62
     1
 10
23.8139
 20
37.3698
 30
0.0
 11
26.1042
 21
37.3698
 31
0.0
  0
LINE
  8
0
 62
     1
 10
26.1042
 20
37.3698
 30
0.0
 11
28.1023
 21
37.3698
 31
0.0
  0
LINE
  8
0
 62
     1
 10
28.1023
 20
37.3698
 30
0.0
 11
29.5148
 21
37.3698
 31
0.0
  0
LINE
  8
0
 62
     1
 10
29.5148
 20
37.3698
 30
0.0
 11
30.0523
 21
37.3698
 31
0.0
  0
LINE
  8
0
 62
     1
 10
30.0523
 20
37.3698
 30
0.0
 11
30.0523
 21
37.3698
 31
0.0
  0
LINE
  8
0
 62
     1
 10
30.0523
 20
37.3698
 30
0.0
 11
30.0523
 21
37.3698
 31
0.0
  0
LINE
  8
0
 62
     1
 10
30.0523
 20
37.3698
 30
0.0
 11
30.0523
 21
38.3646
 31
0.0
  0
LINE
  8
0
 62
     1
 10
30.0523
 20
38.3646
 30
0.0
 11
30.0523
 21
40.9871
 31
0.0
  0
LINE
  8
0
 62
     1
 10
30.0523
 20
40.9871
 30
0.0
 11
30.0523
 21
44.6927
 31
0.0
  0
LINE
  8
0
 62
     1
 10
30.0523
 20
44.6927
 30
0.0
 11
30.0523
 21
48.9409
 31
0.0
  0
LINE
  8
0
 62
     1
 10
30.0523
 20
48.9409
 30
0.0
 11
30.0523
 21
53.1908
 31
0.0
  0
LINE
  8
0
 62
     1
 10
30.0523
 20
53.1908
 30
0.0
 11
30.0523
 21
56.8964
 31
0.0
  0
LINE
  8
0
 62
     1
 10
30.0523
 20
56.8964
 30
0.0
 11
30.0523
 21
59.5189
 31
0.0
  0
LINE
  8
0
 62
     1
 10
30.0523
 20
59.5189
 30
0.0
 11
30.0523
 21
60.5123
 31
0.0
  0
LINE
  8
0
 62
     1
 10
30.0523
 20
60.5123
 30
0.0
 11
30.0523
 21
60.5123
 31
0.0
  0
LINE
  8
0
 62
     1
 10
30.0523
 20
60.5123
 30
0.0
 11
30.0523
 21
60.5123
 31
0.0
  0
LINE
  8
0
 62
     1
 10
30.0523
 20
60.5123
 30
0.0
 11
29.4694
 21
60.5123
 31
0.0
  0
LINE
  8
0
 62
     1
 10
29.4694
 20
60.5123
 30
0.0
 11
28.1905
 21
60.5123
 31
0.0
  0
LINE
  8
0
 62
     1
 10
28.1905
 20
60.5123
 30
0.0
 11
26.9103
 21
60.5123
 31
0.0
  0
LINE
  8
0
 62
     1
 10
26.9103
 20
60.5123
 30
0.0
 11
26.3288
 21
60.5123
 31
0.0
  0
LINE
  8
0
 62
     1
 10
26.3288
 20
60.5123
 30
0.0
 11
26.3288
 21
60.5123
 31
0.0
  0
LINE
  8
0
 62
     1
 10
26.3288
 20
60.5123
 30
0.0
 11
26.3288
 21
60.5123
 31
0.0
  0
LINE
  8
0
 62
     1
 10
26.3288
 20
60.5123
 30
0.0
 11
26.3288
 21
60.8281
 31
0.0
  0
LINE
  8
0
 62
     1
 10
26.3288
 20
60.8281
 30
0.0
 11
26.3288
 21
61.5199
 31
0.0
  0
LINE
  8
0
 62
     1
 10
26.3288
 20
61.5199
 30
0.0
 11
26.3288
 21
62.2117
 31
0.0
  0
LINE
  8
0
 62
     1
 10
26.3288
 20
62.2117
 30
0.0
 11
26.3288
 21
62.5256
 31
0.0
  0
LINE
  8
0
 62
     1
 10
26.3288
 20
62.5256
 30
0.0
 11
26.3288
 21
62.5256
 31
0.0
  0
LINE
  8
0
 62
     1
 10
26.3288
 20
62.5256
 30
0.0
 11
26.3288
 21
62.5256
 31
0.0
  0
LINE
  8
0
 62
     1
 10
26.3288
 20
62.5256
 30
0.0
 11
26.1124
 21
62.5256
 31
0.0
  0
LINE
  8
0
 62
     1
 10
26.1124
 20
62.5256
 30
0.0
 11
25.5419
 21
62.5256
 31
0.0
  0
LINE
  8
0
 62
     1
 10
25.5419
 20
62.5256
 30
0.0
 11
24.7358
 21
62.5256
 31
0.0
  0
LINE
  8
0
 62
     1
 10
24.7358
 20
62.5256
 30
0.0
 11
23.8125
 21
62.5256
 31
0.0
  0
LINE
  8
0
 62
     1
 10
23.8125
 20
62.5256
 30
0.0
 11
22.8892
 21
62.5256
 31
0.0
  0
LINE
  8
0
 62
     1
 10
22.8892
 20
62.5256
 30
0.0
 11
22.0831
 21
62.5256
 31
0.0
  0
LINE
  8
0
 62
     1
 10
22.0831
 20
62.5256
 30
0.0
 11
21.5126
 21
62.5256
 31
0.0
  0
LINE
  8
0
 62
     1
 10
21.5126
 20
62.5256
 30
0.0
 11
21.2976
 21
62.5256
 31
0.0
  0
LINE
  8
0
 62
     1
 10
21.2976
 20
62.5256
 30
0.0
 11
21.2976
 21
62.5256
 31
0.0
  0
LINE
  8
0
 62
     1
 10
21.2976
 20
62.5256
 30
0.0
 11
21.2976
 21
62.5256
 31
0.0
  0
LINE
  8
0
 62
     1
 10
21.2976
 20
62.5256
 30
0.0
 11
21.2976
 21
62.2117
 31
0.0
  0
LINE
  8
0
 62
     1
 10
21.2976
 20
62.2117
 30
0.0
 11
21.2976
 21
61.5199
 31
0.0
  0
LINE
  8
0
 62
     1
 10
21.2976
 20
61.5199
 30
0.0
 11
21.2976
 21
60.8281
 31
0.0
  0
LINE
  8
0
 62
     1
 10
21.2976
 20
60.8281
 30
0.0
 11
21.2976
 21
60.5123
 31
0.0
  0
LINE
  8
0
 62
     1
 10
21.2976
 20
60.5123
 30
0.0
 11
21.2976
 21
60.5123
 31
0.0
  0
LINE
  8
0
 62
     1
 10
21.2976
 20
60.5123
 30
0.0
 11
21.2976
 21
60.5123
 31
0.0
  0
LINE
  8
0
 62
     1
 10
21.2976
 20
60.5123
 30
0.0
 11
20.7147
 21
60.5123
 31
0.0
  0
LINE
  8
0
 62
     1
 10
20.7147
 20
60.5123
 30
0.0
 11
19.4359
 21
60.5123
 31
0.0
  0
LINE
  8
0
 62
     1
 10
19.4359
 20
60.5123
 30
0.0
 11
18.157
 21
60.5123
 31
0.0
  0
LINE
  8
0
 62
     1
 10
18.157
 20
60.5123
 30
0.0
 11
17.5755
 21
60.5123
 31
0.0
  0
LINE
  8
0
 62
     1
 10
17.5755
 20
60.5123
 30
0.0
 11
17.5755
 21
60.5123
 31
0.0
  0
LINE
  8
0
 62
     1
 10
14.4556
 20
51.9603
 30
0.0
 11
14.6017
 21
51.9603
 31
0.0
  0
LINE
  8
0
 62
     1
 10
14.6017
 20
51.9603
 30
0.0
 11
15.0427
 21
51.8418
 31
0.0
  0
LINE
  8
0
 62
     1
 10
15.0427
 20
51.8418
 30
0.0
 11
15.5222
 21
51.5179
 31
0.0
  0
LINE
  8
0
 62
     1
 10
15.5222
 20
51.5179
 30
0.0
 11
15.8447
 21
51.0385
 31
0.0
  0
LINE
  8
0
 62
     1
 10
15.8447
 20
51.0385
 30
0.0
 11
15.9646
 21
50.5975
 31
0.0
  0
LINE
  8
0
 62
     1
 10
15.9646
 20
50.5975
 30
0.0
 11
15.9646
 21
50.45
 31
0.0
  0
LINE
  8
0
 62
     1
 10
15.9646
 20
50.45
 30
0.0
 11
15.9646
 21
50.304
 31
0.0
  0
LINE
  8
0
 62
     1
 10
15.9646
 20
50.304
 30
0.0
 11
15.8447
 21
49.863
 31
0.0
  0
LINE
  8
0
 62
     1
 10
15.8447
 20
49.863
 30
0.0
 11
15.5222
 21
49.3832
 31
0.0
  0
LINE
  8
0
 62
     1
 10
15.5222
 20
49.3832
 30
0.0
 11
15.0427
 21
49.0608
 31
0.0
  0
LINE
  8
0
 62
     1
 10
15.0427
 20
49.0608
 30
0.0
 11
14.6017
 21
48.9409
 31
0.0
  0
LINE
  8
0
 62
     1
 10
14.6017
 20
48.9409
 30
0.0
 11
14.4556
 21
48.9409
 31
0.0
  0
LINE
  8
0
 62
     1
 10
14.4556
 20
48.9409
 30
0.0
 11
14.3082
 21
48.9409
 31
0.0
  0
LINE
  8
0
 62
     1
 10
14.3082
 20
48.9409
 30
0.0
 11
13.8672
 21
49.0608
 31
0.0
  0
LINE
  8
0
 62
     1
 10
13.8672
 20
49.0608
 30
0.0
 11
13.3876
 21
49.3832
 31
0.0
  0
LINE
  8
0
 62
     1
 10
13.3876
 20
49.3832
 30
0.0
 11
13.0652
 21
49.863
 31
0.0
  0
LINE
  8
0
 62
     1
 10
13.0652
 20
49.863
 30
0.0
 11
12.9467
 21
50.304
 31
0.0
  0
LINE
  8
0
 62
     1
 10
12.9467
 20
50.304
 30
0.0
 11
12.9467
 21
50.45
 31
0.0
  0
LINE
  8
0
 62
     1
 10
12.9467
 20
50.45
 30
0.0
 11
12.9467
 21
50.5975
 31
0.0
  0
LINE
  8
0
 62
     1
 10
12.9467
 20
50.5975
 30
0.0
 11
13.0652
 21
51.0385
 31
0.0
  0
LINE
  8
0
 62
     1
 10
13.0652
 20
51.0385
 30
0.0
 11
13.3876
 21
51.5179
 31
0.0
  0
LINE
  8
0
 62
     1
 10
13.3876
 20
51.5179
 30
0.0
 11
13.8672
 21
51.8418
 31
0.0
  0
LINE
  8
0
 62
     1
 10
13.8672
 20
51.8418
 30
0.0
 11
14.3082
 21
51.9603
 31
0.0
  0
LINE
  8
0
 62
     1
 10
14.3082
 20
51.9603
 30
0.0
 11
14.4556
 21
51.9603
 31
0.0
  0
LINE
  8
0
 62
     1
 10
33.3733
 20
50.45
 30
0.0
 11
33.5194
 21
50.45
 31
0.0
  0
LINE
  8
0
 62
     1
 10
33.5194
 20
50.45
 30
0.0
 11
33.9604
 21
50.3315
 31
0.0
  0
LINE
  8
0
 62
     1
 10
33.9604
 20
50.3315
 30
0.0
 11
34.4399
 21
50.0091
 31
0.0
  0
LINE
  8
0
 62
     1
 10
34.4399
 20
50.0091
 30
0.0
 11
34.7624
 21
49.5293
 31
0.0
  0
LINE
  8
0
 62
     1
 10
34.7624
 20
49.5293
 30
0.0
 11
34.8823
 21
49.0883
 31
0.0
  0
LINE
  8
0
 62
     1
 10
34.8823
 20
49.0883
 30
0.0
 11
34.8823
 21
48.9409
 31
0.0
  0
LINE
  8
0
 62
     1
 10
34.8823
 20
48.9409
 30
0.0
 11
34.8823
 21
48.7948
 31
0.0
  0
LINE
  8
0
 62
     1
 10
34.8823
 20
48.7948
 30
0.0
 11
34.7624
 21
48.3538
 31
0.0
  0
LINE
  8
0
 62
     1
 10
34.7624
 20
48.3538
 30
0.0
 11
34.4399
 21
47.8744
 31
0.0
  0
LINE
  8
0
 62
     1
 10
34.4399
 20
47.8744
 30
0.0
 11
33.9604
 21
47.552
 31
0.0
  0
LINE
  8
0
 62
     1
 10
33.9604
 20
47.552
 30
0.0
 11
33.5194
 21
47.432
 31
0.0
  0
LINE
  8
0
 62
     1
 10
33.5194
 20
47.432
 30
0.0
 11
33.3733
 21
47.432
 31
0.0
  0
LINE
  8
0
 62
     1
 10
33.3733
 20
47.432
 30
0.0
 11
33.2259
 21
47.432
 31
0.0
  0
LINE
  8
0
 62
     1
 10
33.2259
 20
47.432
 30
0.0
 11
32.7849
 21
47.552
 31
0.0
  0
LINE
  8
0
 62
     1
 10
32.7849
 20
47.552
 30
0.0
 11
32.3053
 21
47.8744
 31
0.0
  0
LINE
  8
0
 62
     1
 10
32.3053
 20
47.8744
 30
0.0
 11
31.9815
 21
48.3538
 31
0.0
  0
LINE
  8
0
 62
     1
 10
31.9815
 20
48.3538
 30
0.0
 11
31.863
 21
48.7948
 31
0.0
  0
LINE
  8
0
 62
     1
 10
31.863
 20
48.7948
 30
0.0
 11
31.863
 21
48.9409
 31
0.0
  0
LINE
  8
0
 62
     1
 10
31.863
 20
48.9409
 30
0.0
 11
31.863
 21
49.0883
 31
0.0
  0
LINE
  8
0
 62
     1
 10
31.863
 20
49.0883
 30
0.0
 11
31.9815
 21
49.5293
 31
0.0
  0
LINE
  8
0
 62
     1
 10
31.9815
 20
49.5293
 30
0.0
 11
32.3053
 21
50.0091
 31
0.0
  0
LINE
  8
0
 62
     1
 10
32.3053
 20
50.0091
 30
0.0
 11
32.7849
 21
50.3315
 31
0.0
  0
LINE
  8
0
 62
     1
 10
32.7849
 20
50.3315
 30
0.0
 11
33.2259
 21
50.45
 31
0.0
  0
LINE
  8
0
 62
     1
 10
33.2259
 20
50.45
 30
0.0
 11
33.3733
 21
50.45
 31
0.0
  0
LINE
  8
0
 62
     1
 10
11.118
 20
61.5114
 30
0.0
 11
11.118
 21
61.5114
 31
0.0
  0
LINE
  8
0
 62
     1
 10
11.118
 20
61.5114
 30
0.0
 11
11.118
 21
60.4654
 31
0.0
  0
LINE
  8
0
 62
     1
 10
11.118
 20
60.4654
 30
0.0
 11
11.118
 21
57.7067
 31
0.0
  0
LINE
  8
0
 62
     1
 10
11.118
 20
57.7067
 30
0.0
 11
11.118
 21
53.8067
 31
0.0
  0
LINE
  8
0
 62
     1
 10
11.118
 20
53.8067
 30
0.0
 11
11.118
 21
49.3367
 31
0.0
  0
LINE
  8
0
 62
     1
 10
11.118
 20
49.3367
 30
0.0
 11
11.118
 21
44.8663
 31
0.0
  0
LINE
  8
0
 62
     1
 10
11.118
 20
44.8663
 30
0.0
 11
11.118
 21
40.9663
 31
0.0
  0
LINE
  8
0
 62
     1
 10
11.118
 20
40.9663
 30
0.0
 11
11.118
 21
38.2076
 31
0.0
  0
LINE
  8
0
 62
     1
 10
11.118
 20
38.2076
 30
0.0
 11
11.118
 21
37.1602
 31
0.0
  0
LINE
  8
0
 62
     1
 10
11.118
 20
37.1602
 30
0.0
 11
11.118
 21
37.1602
 31
0.0
  0
LINE
  8
0
 62
     1
 10
11.118
 20
37.1602
 30
0.0
 11
11.118
 21
36.7841
 31
0.0
  0
LINE
  8
0
 62
     1
 10
11.118
 20
36.7841
 30
0.0
 11
11.4239
 21
35.6514
 31
0.0
  0
LINE
  8
0
 62
     1
 10
11.4239
 20
35.6514
 30
0.0
 11
12.259
 21
34.4151
 31
0.0
  0
LINE
  8
0
 62
     1
 10
12.259
 20
34.4151
 30
0.0
 11
13.4951
 21
33.58
 31
0.0
  0
LINE
  8
0
 62
     1
 10
13.4951
 20
33.58
 30
0.0
 11
14.6265
 21
33.2727
 31
0.0
  0
LINE
  8
0
 62
     1
 10
14.6265
 20
33.2727
 30
0.0
 11
15.0041
 21
33.2727
 31
0.0
  0
LINE
  8
0
 62
     1
 10
15.0041
 20
33.2727
 30
0.0
 11
15.0041
 21
33.2727
 31
0.0
  0
LINE
  8
0
 62
     1
 10
15.0041
 20
33.2727
 30
0.0
 11
15.7289
 21
33.2727
 31
0.0
  0
LINE
  8
0
 62
     1
 10
15.7289
 20
33.2727
 30
0.0
 11
17.6403
 21
33.2727
 31
0.0
  0
LINE
  8
0
 62
     1
 10
17.6403
 20
33.2727
 30
0.0
 11
20.344
 21
33.2727
 31
0.0
  0
LINE
  8
0
 62
     1
 10
20.344
 20
33.2727
 30
0.0
 11
23.4432
 21
33.2727
 31
0.0
  0
LINE
  8
0
 62
     1
 10
23.4432
 20
33.2727
 30
0.0
 11
26.5424
 21
33.2727
 31
0.0
  0
LINE
  8
0
 62
     1
 10
26.5424
 20
33.2727
 30
0.0
 11
29.2461
 21
33.2727
 31
0.0
  0
LINE
  8
0
 62
     1
 10
29.2461
 20
33.2727
 30
0.0
 11
31.1574
 21
33.2727
 31
0.0
  0
LINE
  8
0
 62
     1
 10
31.1574
 20
33.2727
 30
0.0
 11
31.8837
 21
33.2727
 31
0.0
  0
LINE
  8
0
 62
     1
 10
31.8837
 20
33.2727
 30
0.0
 11
31.8837
 21
33.2727
 31
0.0
  0
LINE
  8
0
 62
     1
 10
31.8837
 20
33.2727
 30
0.0
 11
32.2599
 21
33.2727
 31
0.0
  0
LINE
  8
0
 62
     1
 10
32.2599
 20
33.2727
 30
0.0
 11
33.3926
 21
33.58
 31
0.0
  0
LINE
  8
0
 62
     1
 10
33.3926
 20
33.58
 30
0.0
 11
34.6287
 21
34.4151
 31
0.0
  0
LINE
  8
0
 62
     1
 10
34.6287
 20
34.4151
 30
0.0
 11
35.4637
 21
35.6514
 31
0.0
  0
LINE
  8
0
 62
     1
 10
35.4637
 20
35.6514
 30
0.0
 11
35.771
 21
36.7841
 31
0.0
  0
LINE
  8
0
 62
     1
 10
35.771
 20
36.7841
 30
0.0
 11
35.771
 21
37.1602
 31
0.0
  0
LINE
  8
0
 62
     1
 10
35.771
 20
37.1602
 30
0.0
 11
35.771
 21
37.1602
 31
0.0
  0
LINE
  8
0
 62
     1
 10
35.771
 20
37.1602
 30
0.0
 11
35.771
 21
38.2076
 31
0.0
  0
LINE
  8
0
 62
     1
 10
35.771
 20
38.2076
 30
0.0
 11
35.771
 21
40.9663
 31
0.0
  0
LINE
  8
0
 62
     1
 10
35.771
 20
40.9663
 30
0.0
 11
35.771
 21
44.8663
 31
0.0
  0
LINE
  8
0
 62
     1
 10
35.771
 20
44.8663
 30
0.0
 11
35.771
 21
49.3367
 31
0.0
  0
LINE
  8
0
 62
     1
 10
35.771
 20
49.3367
 30
0.0
 11
35.771
 21
53.8067
 31
0.0
  0
LINE
  8
0
 62
     1
 10
35.771
 20
53.8067
 30
0.0
 11
35.771
 21
57.7067
 31
0.0
  0
LINE
  8
0
 62
     1
 10
35.771
 20
57.7067
 30
0.0
 11
35.771
 21
60.4654
 31
0.0
  0
LINE
  8
0
 62
     1
 10
35.771
 20
60.4654
 30
0.0
 11
35.771
 21
61.5114
 31
0.0
  0
LINE
  8
0
 62
     1
 10
35.771
 20
61.5114
 30
0.0
 11
35.771
 21
61.5114
 31
0.0
  0
LINE
  8
0
 62
     1
 10
35.771
 20
61.5114
 30
0.0
 11
35.771
 21
61.8892
 31
0.0
  0
LINE
  8
0
 62
     1
 10
35.771
 20
61.8892
 30
0.0
 11
35.4637
 21
63.022
 31
0.0
  0
LINE
  8
0
 62
     1
 10
35.4637
 20
63.022
 30
0.0
 11
34.6287
 21
64.2578
 31
0.0
  0
LINE
  8
0
 62
     1
 10
34.6287
 20
64.2578
 30
0.0
 11
33.3926
 21
65.0931
 31
0.0
  0
LINE
  8
0
 62
     1
 10
33.3926
 20
65.0931
 30
0.0
 11
32.2599
 21
65.399
 31
0.0
  0
LINE
  8
0
 62
     1
 10
32.2599
 20
65.399
 30
0.0
 11
31.8837
 21
65.399
 31
0.0
  0
LINE
  8
0
 62
     1
 10
31.8837
 20
65.399
 30
0.0
 11
31.8837
 21
65.399
 31
0.0
  0
LINE
  8
0
 62
     1
 10
31.8837
 20
65.399
 30
0.0
 11
31.1574
 21
65.399
 31
0.0
  0
LINE
  8
0
 62
     1
 10
31.1574
 20
65.399
 30
0.0
 11
29.2461
 21
65.399
 31
0.0
  0
LINE
  8
0
 62
     1
 10
29.2461
 20
65.399
 30
0.0
 11
26.5424
 21
65.399
 31
0.0
  0
LINE
  8
0
 62
     1
 10
26.5424
 20
65.399
 30
0.0
 11
23.4432
 21
65.399
 31
0.0
  0
LINE
  8
0
 62
     1
 10
23.4432
 20
65.399
 30
0.0
 11
20.344
 21
65.399
 31
0.0
  0
LINE
  8
0
 62
     1
 10
20.344
 20
65.399
 30
0.0
 11
17.6403
 21
65.399
 31
0.0
  0
LINE
  8
0
 62
     1
 10
17.6403
 20
65.399
 30
0.0
 11
15.7289
 21
65.399
 31
0.0
  0
LINE
  8
0
 62
     1
 10
15.7289
 20
65.399
 30
0.0
 11
15.0041
 21
65.399
 31
0.0
  0
LINE
  8
0
 62
     1
 10
15.0041
 20
65.399
 30
0.0
 11
15.0041
 21
65.399
 31
0.0
  0
LINE
  8
0
 62
     1
 10
15.0041
 20
65.399
 30
0.0
 11
14.6265
 21
65.399
 31
0.0
  0
LINE
  8
0
 62
     1
 10
14.6265
 20
65.399
 30
0.0
 11
13.4951
 21
65.0931
 31
0.0
  0
LINE
  8
0
 62
     1
 10
13.4951
 20
65.0931
 30
0.0
 11
12.259
 21
64.2578
 31
0.0
  0
LINE
  8
0
 62
     1
 10
12.259
 20
64.2578
 30
0.0
 11
11.4239
 21
63.022
 31
0.0
  0
LINE
  8
0
 62
     1
 10
11.4239
 20
63.022
 30
0.0
 11
11.118
 21
61.8892
 31
0.0
  0
LINE
  8
0
 62
     1
 10
11.118
 20
61.8892
 30
0.0
 11
11.118
 21
61.5114
 31
0.0
  0
LINE
  8
0
 62
     0
 10
40.4442
 20
71.8358
 30
0.0
 11
40.4442
 21
26.8359
 31
0.0
  0
LINE
  8
0
 62
     0
 10
40.4442
 20
26.8359
 30
0.0
 11
6.4437
 21
26.8359
 31
0.0
  0
LINE
  8
0
 62
     0
 10
6.4437
 20
26.8359
 30
0.0
 11
6.4437
 21
71.8358
 31
0.0
  0
LINE
  8
0
 62
     0
 10
6.4437
 20
71.8358
 30
0.0
 11
40.4442
 21
71.8358
 31
0.0
  0
LINE
  8
0
 62
     0
 10
74.9847
 20
67.7556
 30
0.0
 11
72.566
 21
67.7499
 31
0.0
  0
LINE
  8
0
 62
     0
 10
72.566
 20
67.7499
 30
0.0
 11
67.9277
 21
54.3059
 31
0.0
  0
LINE
  8
0
 62
     0
 10
67.9277
 20
54.3059
 30
0.0
 11
70.0207
 21
54.3059
 31
0.0
  0
LINE
  8
0
 62
     0
 10
70.0207
 20
54.3059
 30
0.0
 11
71.1246
 21
57.4848
 31
0.0
  0
LINE
  8
0
 62
     0
 10
71.1246
 20
57.4848
 30
0.0
 11
76.0952
 21
57.4957
 31
0.0
  0
LINE
  8
0
 62
     0
 10
76.0952
 20
57.4957
 30
0.0
 11
78.8197
 21
49.4467
 31
0.0
  0
LINE
  8
0
 62
     0
 10
78.8197
 20
49.4467
 30
0.0
 11
81.4779
 21
49.4425
 31
0.0
  0
LINE
  8
0
 62
     0
 10
81.4779
 20
49.4425
 30
0.0
 11
74.9847
 21
67.7541
 31
0.0
  0
LINE
  8
0
 62
     0
 10
74.9847
 20
67.7541
 30
0.0
 11
74.9847
 21
67.7556
 31
0.0
  0
LINE
  8
0
 62
     0
 10
73.6163
 20
64.6409
 30
0.0
 11
75.4105
 21
59.4706
 31
0.0
  0
LINE
  8
0
 62
     0
 10
75.4105
 20
59.4706
 30
0.0
 11
71.8301
 21
59.461
 31
0.0
  0
LINE
  8
0
 62
     0
 10
71.8301
 20
59.461
 30
0.0
 11
73.6163
 21
64.6409
 31
0.0
  0
LINE
  8
0
 62
     0
 10
82.3062
 20
68.0491
 30
0.0
 11
82.3172
 21
59.4416
 31
0.0
  0
LINE
  8
0
 62
     0
 10
82.3172
 20
59.4416
 30
0.0
 11
86.396
 21
59.4459
 31
0.0
  0
LINE
  8
0
 62
     0
 10
86.396
 20
59.4459
 30
0.0
 11
86.7047
 21
59.4487
 31
0.0
  0
LINE
  8
0
 62
     0
 10
86.7047
 20
59.4487
 30
0.0
 11
87.6335
 21
59.6304
 31
0.0
  0
LINE
  8
0
 62
     0
 10
87.6335
 20
59.6304
 30
0.0
 11
88.5017
 21
60.0964
 31
0.0
  0
LINE
  8
0
 62
     0
 10
88.5017
 20
60.0964
 30
0.0
 11
89.0323
 21
60.755
 31
0.0
  0
LINE
  8
0
 62
     0
 10
89.0323
 20
60.755
 30
0.0
 11
89.2556
 21
61.5199
 31
0.0
  0
LINE
  8
0
 62
     0
 10
89.2556
 20
61.5199
 30
0.0
 11
89.2016
 21
62.2999
 31
0.0
  0
LINE
  8
0
 62
     0
 10
89.2016
 20
62.2999
 30
0.0
 11
88.9014
 21
63.0093
 31
0.0
  0
LINE
  8
0
 62
     0
 10
88.9014
 20
63.0093
 30
0.0
 11
88.386
 21
63.5579
 31
0.0
  0
LINE
  8
0
 62
     0
 10
88.386
 20
63.5579
 30
0.0
 11
87.8678
 21
63.8253
 31
0.0
  0
LINE
  8
0
 62
     0
 10
87.8678
 20
63.8253
 30
0.0
 11
87.6861
 21
63.8584
 31
0.0
  0
LINE
  8
0
 62
     0
 10
87.6861
 20
63.8584
 30
0.0
 11
87.8487
 21
63.9367
 31
0.0
  0
LINE
  8
0
 62
     0
 10
87.8487
 20
63.9367
 30
0.0
 11
88.2812
 21
64.2938
 31
0.0
  0
LINE
  8
0
 62
     0
 10
88.2812
 20
64.2938
 30
0.0
 11
88.6672
 21
64.8836
 31
0.0
  0
LINE
  8
0
 62
     0
 10
88.6672
 20
64.8836
 30
0.0
 11
88.8464
 21
65.5655
 31
0.0
  0
LINE
  8
0
 62
     0
 10
88.8464
 20
65.5655
 30
0.0
 11
88.8298
 21
66.2739
 31
0.0
  0
LINE
  8
0
 62
     0
 10
88.8298
 20
66.2739
 30
0.0
 11
88.6231
 21
66.9424
 31
0.0
  0
LINE
  8
0
 62
     0
 10
88.6231
 20
66.9424
 30
0.0
 11
88.2329
 21
67.5047
 31
0.0
  0
LINE
  8
0
 62
     0
 10
88.2329
 20
67.5047
 30
0.0
 11
87.6681
 21
67.896
 31
0.0
  0
LINE
  8
0
 62
     0
 10
87.6681
 20
67.896
 30
0.0
 11
87.1181
 21
68.0462
 31
0.0
  0
LINE
  8
0
 62
     0
 10
87.1181
 20
68.0462
 30
0.0
 11
86.935
 21
68.0491
 31
0.0
  0
LINE
  8
0
 62
     0
 10
86.935
 20
68.0491
 30
0.0
 11
82.3062
 21
68.0491
 31
0.0
  0
LINE
  8
0
 62
     0
 10
86.2969
 20
66.6062
 30
0.0
 11
86.4732
 21
66.6062
 31
0.0
  0
LINE
  8
0
 62
     0
 10
86.4732
 20
66.6062
 30
0.0
 11
87.0052
 21
66.27
 31
0.0
  0
LINE
  8
0
 62
     0
 10
87.0052
 20
66.27
 30
0.0
 11
87.2451
 21
65.5313
 31
0.0
  0
LINE
  8
0
 62
     0
 10
87.2451
 20
65.5313
 30
0.0
 11
87.0095
 21
64.7912
 31
0.0
  0
LINE
  8
0
 62
     0
 10
87.0095
 20
64.7912
 30
0.0
 11
86.4747
 21
64.4536
 31
0.0
  0
LINE
  8
0
 62
     0
 10
86.4747
 20
64.4536
 30
0.0
 11
86.2969
 21
64.4521
 31
0.0
  0
LINE
  8
0
 62
     0
 10
86.2969
 20
64.4521
 30
0.0
 11
83.9943
 21
64.4521
 31
0.0
  0
LINE
  8
0
 62
     0
 10
83.9943
 20
64.4521
 30
0.0
 11
83.9943
 21
66.6048
 31
0.0
  0
LINE
  8
0
 62
     0
 10
83.9943
 20
66.6048
 30
0.0
 11
86.2969
 21
66.6062
 31
0.0
  0
LINE
  8
0
 62
     0
 10
84.0024
 20
63.1254
 30
0.0
 11
86.5628
 21
63.1254
 31
0.0
  0
LINE
  8
0
 62
     0
 10
86.5628
 20
63.1254
 30
0.0
 11
86.7558
 21
63.1155
 31
0.0
  0
LINE
  8
0
 62
     0
 10
86.7558
 20
63.1155
 30
0.0
 11
87.322
 21
62.756
 31
0.0
  0
LINE
  8
0
 62
     0
 10
87.322
 20
62.756
 30
0.0
 11
87.5591
 21
62.0063
 31
0.0
  0
LINE
  8
0
 62
     0
 10
87.5591
 20
62.0063
 30
0.0
 11
87.2987
 21
61.251
 31
0.0
  0
LINE
  8
0
 62
     0
 10
87.2987
 20
61.251
 30
0.0
 11
86.753
 21
60.8789
 31
0.0
  0
LINE
  8
0
 62
     0
 10
86.753
 20
60.8789
 30
0.0
 11
86.5628
 21
60.8623
 31
0.0
  0
LINE
  8
0
 62
     0
 10
86.5628
 20
60.8623
 30
0.0
 11
83.9929
 21
60.8623
 31
0.0
  0
LINE
  8
0
 62
     0
 10
83.9929
 20
60.8623
 30
0.0
 11
84.0024
 21
63.1254
 31
0.0
  0
LINE
  8
0
 62
     0
 10
61.7513
 20
71.428
 30
0.0
 11
91.0484
 21
71.428
 31
0.0
  0
LINE
  8
0
 62
     0
 10
91.0484
 20
71.428
 30
0.0
 11
91.1751
 21
71.428
 31
0.0
  0
LINE
  8
0
 62
     0
 10
91.1751
 20
71.428
 30
0.0
 11
91.5596
 21
71.326
 31
0.0
  0
LINE
  8
0
 62
     0
 10
91.5596
 20
71.326
 30
0.0
 11
91.9759
 21
71.0477
 31
0.0
  0
LINE
  8
0
 62
     0
 10
91.9759
 20
71.0477
 30
0.0
 11
92.2556
 21
70.6314
 31
0.0
  0
LINE
  8
0
 62
     0
 10
92.2556
 20
70.6314
 30
0.0
 11
92.359
 21
70.2469
 31
0.0
  0
LINE
  8
0
 62
     0
 10
92.359
 20
70.2469
 30
0.0
 11
92.359
 21
70.1188
 31
0.0
  0
LINE
  8
0
 62
     0
 10
92.359
 20
70.1188
 30
0.0
 11
92.359
 21
40.8824
 31
0.0
  0
LINE
  8
0
 62
     0
 10
92.359
 20
40.8824
 30
0.0
 11
92.359
 21
40.7554
 31
0.0
  0
LINE
  8
0
 62
     0
 10
92.359
 20
40.7554
 30
0.0
 11
92.2556
 21
40.3712
 31
0.0
  0
LINE
  8
0
 62
     0
 10
92.2556
 20
40.3712
 30
0.0
 11
91.9759
 21
39.9549
 31
0.0
  0
LINE
  8
0
 62
     0
 10
91.9759
 20
39.9549
 30
0.0
 11
91.5596
 21
39.6766
 31
0.0
  0
LINE
  8
0
 62
     0
 10
91.5596
 20
39.6766
 30
0.0
 11
91.1751
 21
39.5732
 31
0.0
  0
LINE
  8
0
 62
     0
 10
91.1751
 20
39.5732
 30
0.0
 11
91.0484
 21
39.5732
 31
0.0
  0
LINE
  8
0
 62
     0
 10
91.0484
 20
39.5732
 30
0.0
 11
61.7513
 21
39.5732
 31
0.0
  0
LINE
  8
0
 62
     0
 10
61.7513
 20
39.5732
 30
0.0
 11
61.6232
 21
39.5732
 31
0.0
  0
LINE
  8
0
 62
     0
 10
61.6232
 20
39.5732
 30
0.0
 11
61.2387
 21
39.6766
 31
0.0
  0
LINE
  8
0
 62
     0
 10
61.2387
 20
39.6766
 30
0.0
 11
60.8224
 21
39.9549
 31
0.0
  0
LINE
  8
0
 62
     0
 10
60.8224
 20
39.9549
 30
0.0
 11
60.5441
 21
40.3712
 31
0.0
  0
LINE
  8
0
 62
     0
 10
60.5441
 20
40.3712
 30
0.0
 11
60.4421
 21
40.7554
 31
0.0
  0
LINE
  8
0
 62
     0
 10
60.4421
 20
40.7554
 30
0.0
 11
60.4421
 21
40.8824
 31
0.0
  0
LINE
  8
0
 62
     0
 10
60.4421
 20
40.8824
 30
0.0
 11
60.4421
 21
70.1188
 31
0.0
  0
LINE
  8
0
 62
     0
 10
60.4421
 20
70.1188
 30
0.0
 11
60.4421
 21
70.2469
 31
0.0
  0
LINE
  8
0
 62
     0
 10
60.4421
 20
70.2469
 30
0.0
 11
60.5441
 21
70.6314
 31
0.0
  0
LINE
  8
0
 62
     0
 10
60.5441
 20
70.6314
 30
0.0
 11
60.8224
 21
71.0477
 31
0.0
  0
LINE
  8
0
 62
     0
 10
60.8224
 20
71.0477
 30
0.0
 11
61.2387
 21
71.326
 31
0.0
  0
LINE
  8
0
 62
     0
 10
61.2387
 20
71.326
 30
0.0
 11
61.6232
 21
71.428
 31
0.0
  0
LINE
  8
0
 62
     0
 10
61.6232
 20
71.428
 30
0.0
 11
61.7513
 21
71.428
 31
0.0
  0
LINE
  8
0
 62
     0
 10
82.3475
 20
58.0542
 30
0.0
 11
82.357
 21
49.4453
 31
0.0
  0
LINE
  8
0
 62
     0
 10
82.357
 20
49.4453
 30
0.0
 11
86.4376
 21
49.4496
 31
0.0
  0
LINE
  8
0
 62
     0
 10
86.4376
 20
49.4496
 30
0.0
 11
86.7463
 21
49.4538
 31
0.0
  0
LINE
  8
0
 62
     0
 10
86.7463
 20
49.4538
 30
0.0
 11
87.6734
 21
49.6341
 31
0.0
  0
LINE
  8
0
 62
     0
 10
87.6734
 20
49.6341
 30
0.0
 11
88.543
 21
50.1015
 31
0.0
  0
LINE
  8
0
 62
     0
 10
88.543
 20
50.1015
 30
0.0
 11
89.0736
 21
50.7601
 31
0.0
  0
LINE
  8
0
 62
     0
 10
89.0736
 20
50.7601
 30
0.0
 11
89.2969
 21
51.525
 31
0.0
  0
LINE
  8
0
 62
     0
 10
89.2969
 20
51.525
 30
0.0
 11
89.2433
 21
52.305
 31
0.0
  0
LINE
  8
0
 62
     0
 10
89.2433
 20
52.305
 30
0.0
 11
88.9427
 21
53.0144
 31
0.0
  0
LINE
  8
0
 62
     0
 10
88.9427
 20
53.0144
 30
0.0
 11
88.4273
 21
53.563
 31
0.0
  0
LINE
  8
0
 62
     0
 10
88.4273
 20
53.563
 30
0.0
 11
87.909
 21
53.8304
 31
0.0
  0
LINE
  8
0
 62
     0
 10
87.909
 20
53.8304
 30
0.0
 11
87.7274
 21
53.8635
 31
0.0
  0
LINE
  8
0
 62
     0
 10
87.7274
 20
53.8635
 30
0.0
 11
87.89
 21
53.9404
 31
0.0
  0
LINE
  8
0
 62
     0
 10
87.89
 20
53.9404
 30
0.0
 11
88.3225
 21
54.2974
 31
0.0
  0
LINE
  8
0
 62
     0
 10
88.3225
 20
54.2974
 30
0.0
 11
88.7084
 21
54.8887
 31
0.0
  0
LINE
  8
0
 62
     0
 10
88.7084
 20
54.8887
 30
0.0
 11
88.8877
 21
55.5706
 31
0.0
  0
LINE
  8
0
 62
     0
 10
88.8877
 20
55.5706
 30
0.0
 11
88.8711
 21
56.279
 31
0.0
  0
LINE
  8
0
 62
     0
 10
88.8711
 20
56.279
 30
0.0
 11
88.6629
 21
56.9475
 31
0.0
  0
LINE
  8
0
 62
     0
 10
88.6629
 20
56.9475
 30
0.0
 11
88.2731
 21
57.5098
 31
0.0
  0
LINE
  8
0
 62
     0
 10
88.2731
 20
57.5098
 30
0.0
 11
87.708
 21
57.9011
 31
0.0
  0
LINE
  8
0
 62
     0
 10
87.708
 20
57.9011
 30
0.0
 11
87.1583
 21
58.0513
 31
0.0
  0
LINE
  8
0
 62
     0
 10
87.1583
 20
58.0513
 30
0.0
 11
86.9749
 21
58.0542
 31
0.0
  0
LINE
  8
0
 62
     0
 10
86.9749
 20
58.0542
 30
0.0
 11
82.3475
 21
58.0542
 31
0.0
  0
LINE
  8
0
 62
     0
 10
86.3367
 20
56.6099
 30
0.0
 11
86.5131
 21
56.6099
 31
0.0
  0
LINE
  8
0
 62
     0
 10
86.5131
 20
56.6099
 30
0.0
 11
87.0465
 21
56.2737
 31
0.0
  0
LINE
  8
0
 62
     0
 10
87.0465
 20
56.2737
 30
0.0
 11
87.285
 21
55.535
 31
0.0
  0
LINE
  8
0
 62
     0
 10
87.285
 20
55.535
 30
0.0
 11
87.0493
 21
54.7963
 31
0.0
  0
LINE
  8
0
 62
     0
 10
87.0493
 20
54.7963
 30
0.0
 11
86.5145
 21
54.4572
 31
0.0
  0
LINE
  8
0
 62
     0
 10
86.5145
 20
54.4572
 30
0.0
 11
86.3367
 21
54.4558
 31
0.0
  0
LINE
  8
0
 62
     0
 10
86.3367
 20
54.4558
 30
0.0
 11
84.0355
 21
54.4558
 31
0.0
  0
LINE
  8
0
 62
     0
 10
84.0355
 20
54.4558
 30
0.0
 11
84.0355
 21
56.6085
 31
0.0
  0
LINE
  8
0
 62
     0
 10
84.0355
 20
56.6085
 30
0.0
 11
86.3367
 21
56.6099
 31
0.0
  0
LINE
  8
0
 62
     0
 10
84.0422
 20
53.1301
 30
0.0
 11
86.6027
 21
53.1301
 31
0.0
  0
LINE
  8
0
 62
     0
 10
86.6027
 20
53.1301
 30
0.0
 11
86.7971
 21
53.1206
 31
0.0
  0
LINE
  8
0
 62
     0
 10
86.7971
 20
53.1206
 30
0.0
 11
87.3622
 21
52.7597
 31
0.0
  0
LINE
  8
0
 62
     0
 10
87.3622
 20
52.7597
 30
0.0
 11
87.6004
 21
52.01
 31
0.0
  0
LINE
  8
0
 62
     0
 10
87.6004
 20
52.01
 30
0.0
 11
87.3386
 21
51.2547
 31
0.0
  0
LINE
  8
0
 62
     0
 10
87.3386
 20
51.2547
 30
0.0
 11
86.7929
 21
50.8825
 31
0.0
  0
LINE
  8
0
 62
     0
 10
86.7929
 20
50.8825
 30
0.0
 11
86.6027
 21
50.8663
 31
0.0
  0
LINE
  8
0
 62
     0
 10
86.6027
 20
50.8663
 30
0.0
 11
84.0341
 21
50.8663
 31
0.0
  0
LINE
  8
0
 62
     0
 10
84.0341
 20
50.8663
 30
0.0
 11
84.0422
 21
53.1301
 31
0.0
  0
LINE
  8
0
 62
     0
 10
63.784
 20
67.933
 30
0.0
 11
69.5635
 21
67.9249
 31
0.0
  0
LINE
  8
0
 62
     0
 10
69.5635
 20
67.9249
 30
0.0
 11
69.5674
 21
66.4503
 31
0.0
  0
LINE
  8
0
 62
     0
 10
69.5674
 20
66.4503
 30
0.0
 11
65.4678
 21
66.4587
 31
0.0
  0
LINE
  8
0
 62
     0
 10
65.4678
 20
66.4587
 30
0.0
 11
65.4625
 21
64.244
 31
0.0
  0
LINE
  8
0
 62
     0
 10
65.4625
 20
64.244
 30
0.0
 11
68.8869
 21
64.2401
 31
0.0
  0
LINE
  8
0
 62
     0
 10
68.8869
 20
64.2401
 30
0.0
 11
68.8869
 21
62.8855
 31
0.0
  0
LINE
  8
0
 62
     0
 10
68.8869
 20
62.8855
 30
0.0
 11
65.4664
 21
62.8855
 31
0.0
  0
LINE
  8
0
 62
     0
 10
65.4664
 20
62.8855
 30
0.0
 11
65.4664
 21
59.3203
 31
0.0
  0
LINE
  8
0
 62
     0
 10
65.4664
 20
59.3203
 30
0.0
 11
63.784
 21
59.3203
 31
0.0
  0
LINE
  8
0
 62
     0
 10
63.784
 20
59.3203
 30
0.0
 11
63.784
 21
67.933
 31
0.0
  0
LINE
  8
0
 62
     0
 10
63.7798
 20
58.0499
 30
0.0
 11
65.4417
 21
58.0499
 31
0.0
  0
LINE
  8
0
 62
     0
 10
65.4417
 20
58.0499
 30
0.0
 11
65.4417
 21
50.9199
 31
0.0
  0
LINE
  8
0
 62
     0
 10
65.4417
 20
50.9199
 30
0.0
 11
69.8458
 21
50.9199
 31
0.0
  0
LINE
  8
0
 62
     0
 10
69.8458
 20
50.9199
 30
0.0
 11
69.8458
 21
49.4538
 31
0.0
  0
LINE
  8
0
 62
     0
 10
69.8458
 20
49.4538
 30
0.0
 11
63.784
 21
49.4538
 31
0.0
  0
LINE
  8
0
 62
     0
 10
63.784
 20
49.4538
 30
0.0
 11
63.7798
 21
58.0499
 31
0.0
  0
LINE
  8
0
 62
     0
 10
64.1629
 20
46.8559
 30
0.0
 11
64.1629
 21
42.5648
 31
0.0
  0
LINE
  8
0
 62
     0
 10
64.1629
 20
42.5648
 30
0.0
 11
66.5484
 21
42.5648
 31
0.0
  0
LINE
  8
0
 62
     0
 10
68.5352
 20
46.8559
 30
0.0
 11
66.9452
 21
42.5648
 31
0.0
  0
LINE
  8
0
 62
     0
 10
68.5352
 20
46.8559
 30
0.0
 11
70.1241
 21
42.5648
 31
0.0
  0
LINE
  8
0
 62
     0
 10
67.5418
 20
43.9953
 30
0.0
 11
69.529
 21
43.9953
 31
0.0
  0
LINE
  8
0
 62
     0
 10
71.1179
 20
46.8559
 30
0.0
 11
71.1179
 21
42.5648
 31
0.0
  0
LINE
  8
0
 62
     0
 10
71.1179
 20
46.8559
 30
0.0
 11
73.8999
 21
42.5648
 31
0.0
  0
LINE
  8
0
 62
     0
 10
73.8999
 20
46.8559
 30
0.0
 11
73.8999
 21
42.5648
 31
0.0
  0
LINE
  8
0
 62
     0
 10
75.4888
 20
46.8559
 30
0.0
 11
75.4888
 21
42.5648
 31
0.0
  0
LINE
  8
0
 62
     0
 10
75.4888
 20
46.8559
 30
0.0
 11
78.2712
 21
42.5648
 31
0.0
  0
LINE
  8
0
 62
     0
 10
78.2712
 20
46.8559
 30
0.0
 11
78.2712
 21
42.5648
 31
0.0
  0
LINE
  8
0
 62
     0
 10
79.8601
 20
46.8559
 30
0.0
 11
79.8601
 21
42.5648
 31
0.0
  0
LINE
  8
0
 62
     0
 10
82.4438
 20
46.8559
 30
0.0
 11
82.0469
 21
46.6506
 31
0.0
  0
LINE
  8
0
 62
     0
 10
82.0469
 20
46.6506
 30
0.0
 11
81.6487
 21
46.2428
 31
0.0
  0
LINE
  8
0
 62
     0
 10
81.6487
 20
46.2428
 30
0.0
 11
81.4504
 21
45.8336
 31
0.0
  0
LINE
  8
0
 62
     0
 10
81.4504
 20
45.8336
 30
0.0
 11
81.2518
 21
45.2219
 31
0.0
  0
LINE
  8
0
 62
     0
 10
81.2518
 20
45.2219
 30
0.0
 11
81.2518
 21
44.1992
 31
0.0
  0
LINE
  8
0
 62
     0
 10
81.2518
 20
44.1992
 30
0.0
 11
81.4504
 21
43.5875
 31
0.0
  0
LINE
  8
0
 62
     0
 10
81.4504
 20
43.5875
 30
0.0
 11
81.6487
 21
43.1782
 31
0.0
  0
LINE
  8
0
 62
     0
 10
81.6487
 20
43.1782
 30
0.0
 11
82.0469
 21
42.7701
 31
0.0
  0
LINE
  8
0
 62
     0
 10
82.0469
 20
42.7701
 30
0.0
 11
82.4438
 21
42.5648
 31
0.0
  0
LINE
  8
0
 62
     0
 10
82.4438
 20
42.5648
 30
0.0
 11
83.239
 21
42.5648
 31
0.0
  0
LINE
  8
0
 62
     0
 10
83.239
 20
42.5648
 30
0.0
 11
83.6359
 21
42.7701
 31
0.0
  0
LINE
  8
0
 62
     0
 10
83.6359
 20
42.7701
 30
0.0
 11
84.0327
 21
43.1782
 31
0.0
  0
LINE
  8
0
 62
     0
 10
84.0327
 20
43.1782
 30
0.0
 11
84.2328
 21
43.5875
 31
0.0
  0
LINE
  8
0
 62
     0
 10
84.2328
 20
43.5875
 30
0.0
 11
84.431
 21
44.1992
 31
0.0
  0
LINE
  8
0
 62
     0
 10
84.431
 20
44.1992
 30
0.0
 11
84.431
 21
45.2219
 31
0.0
  0
LINE
  8
0
 62
     0
 10
84.431
 20
45.2219
 30
0.0
 11
84.2328
 21
45.8336
 31
0.0
  0
LINE
  8
0
 62
     0
 10
84.2328
 20
45.8336
 30
0.0
 11
84.0327
 21
46.2428
 31
0.0
  0
LINE
  8
0
 62
     0
 10
84.0327
 20
46.2428
 30
0.0
 11
83.6359
 21
46.6506
 31
0.0
  0
LINE
  8
0
 62
     0
 10
83.6359
 20
46.6506
 30
0.0
 11
83.239
 21
46.8559
 31
0.0
  0
LINE
  8
0
 62
     0
 10
83.239
 20
46.8559
 30
0.0
 11
82.4438
 21
46.8559
 31
0.0
  0
LINE
  8
0
 62
     0
 10
85.8213
 20
46.8559
 30
0.0
 11
85.8213
 21
42.5648
 31
0.0
  0
LINE
  8
0
 62
     0
 10
85.8213
 20
46.8559
 30
0.0
 11
88.6037
 21
42.5648
 31
0.0
  0
LINE
  8
0
 62
     0
 10
88.6037
 20
46.8559
 30
0.0
 11
88.6037
 21
42.5648
 31
0.0
  0
LINE
  8
0
 62
     0
 10
4.83828
 20
84.8032
 30
0.0
 11
4.83828
 21
84.4268
 31
0.0
  0
LINE
  8
0
 62
     0
 10
4.83828
 20
84.4268
 30
0.0
 11
5.02433
 21
84.0493
 31
0.0
  0
LINE
  8
0
 62
     0
 10
5.02433
 20
84.0493
 30
0.0
 11
5.58243
 21
83.862
 31
0.0
  0
LINE
  8
0
 62
     0
 10
5.58243
 20
83.862
 30
0.0
 11
8.74642
 21
83.862
 31
0.0
  0
LINE
  8
0
 62
     0
 10
6.14056
 20
83.2968
 30
0.0
 11
6.14056
 21
84.6145
 31
0.0
  0
LINE
  8
0
 62
     0
 10
6.14056
 20
88.0043
 30
0.0
 11
8.74642
 21
88.0043
 31
0.0
  0
LINE
  8
0
 62
     0
 10
6.70003
 20
88.0043
 30
0.0
 11
6.32658
 21
87.6282
 31
0.0
  0
LINE
  8
0
 62
     0
 10
6.32658
 20
87.6282
 30
0.0
 11
6.14056
 21
87.2518
 31
0.0
  0
LINE
  8
0
 62
     0
 10
6.14056
 20
87.2518
 30
0.0
 11
6.14056
 21
86.687
 31
0.0
  0
LINE
  8
0
 62
     0
 10
6.14056
 20
86.687
 30
0.0
 11
6.32658
 21
86.3092
 31
0.0
  0
LINE
  8
0
 62
     0
 10
6.32658
 20
86.3092
 30
0.0
 11
6.70003
 21
85.9331
 31
0.0
  0
LINE
  8
0
 62
     0
 10
6.70003
 20
85.9331
 30
0.0
 11
7.25812
 21
85.7444
 31
0.0
  0
LINE
  8
0
 62
     0
 10
7.25812
 20
85.7444
 30
0.0
 11
7.6302
 21
85.7444
 31
0.0
  0
LINE
  8
0
 62
     0
 10
7.6302
 20
85.7444
 30
0.0
 11
8.18829
 21
85.9331
 31
0.0
  0
LINE
  8
0
 62
     0
 10
8.18829
 20
85.9331
 30
0.0
 11
8.56036
 21
86.3092
 31
0.0
  0
LINE
  8
0
 62
     0
 10
8.56036
 20
86.3092
 30
0.0
 11
8.74642
 21
86.687
 31
0.0
  0
LINE
  8
0
 62
     0
 10
8.74642
 20
86.687
 30
0.0
 11
8.74642
 21
87.2518
 31
0.0
  0
LINE
  8
0
 62
     0
 10
8.74642
 20
87.2518
 30
0.0
 11
8.56036
 21
87.6282
 31
0.0
  0
LINE
  8
0
 62
     0
 10
8.56036
 20
87.6282
 30
0.0
 11
8.18829
 21
88.0043
 31
0.0
  0
LINE
  8
0
 62
     0
 10
4.83828
 20
89.5117
 30
0.0
 11
8.74642
 21
89.5117
 31
0.0
  0
LINE
  8
0
 62
     0
 10
6.70003
 20
89.5117
 30
0.0
 11
6.32658
 21
89.8881
 31
0.0
  0
LINE
  8
0
 62
     0
 10
6.32658
 20
89.8881
 30
0.0
 11
6.14056
 21
90.2642
 31
0.0
  0
LINE
  8
0
 62
     0
 10
6.14056
 20
90.2642
 30
0.0
 11
6.14056
 21
90.8293
 31
0.0
  0
LINE
  8
0
 62
     0
 10
6.14056
 20
90.8293
 30
0.0
 11
6.32658
 21
91.2068
 31
0.0
  0
LINE
  8
0
 62
     0
 10
6.32658
 20
91.2068
 30
0.0
 11
6.70003
 21
91.5829
 31
0.0
  0
LINE
  8
0
 62
     0
 10
6.70003
 20
91.5829
 30
0.0
 11
7.25812
 21
91.772
 31
0.0
  0
LINE
  8
0
 62
     0
 10
7.25812
 20
91.772
 30
0.0
 11
7.6302
 21
91.772
 31
0.0
  0
LINE
  8
0
 62
     0
 10
7.6302
 20
91.772
 30
0.0
 11
8.18829
 21
91.5829
 31
0.0
  0
LINE
  8
0
 62
     0
 10
8.18829
 20
91.5829
 30
0.0
 11
8.56036
 21
91.2068
 31
0.0
  0
LINE
  8
0
 62
     0
 10
8.56036
 20
91.2068
 30
0.0
 11
8.74642
 21
90.8293
 31
0.0
  0
LINE
  8
0
 62
     0
 10
8.74642
 20
90.8293
 30
0.0
 11
8.74642
 21
90.2642
 31
0.0
  0
LINE
  8
0
 62
     0
 10
8.74642
 20
90.2642
 30
0.0
 11
8.56036
 21
89.8881
 31
0.0
  0
LINE
  8
0
 62
     0
 10
8.56036
 20
89.8881
 30
0.0
 11
8.18829
 21
89.5117
 31
0.0
  0
LINE
  8
0
 62
     0
 10
4.83828
 20
93.0892
 30
0.0
 11
8.74642
 21
93.0892
 31
0.0
  0
LINE
  8
0
 62
     0
 10
6.14056
 20
96.6682
 30
0.0
 11
8.74642
 21
96.6682
 31
0.0
  0
LINE
  8
0
 62
     0
 10
6.70003
 20
96.6682
 30
0.0
 11
6.32658
 21
96.2918
 31
0.0
  0
LINE
  8
0
 62
     0
 10
6.32658
 20
96.2918
 30
0.0
 11
6.14056
 21
95.9143
 31
0.0
  0
LINE
  8
0
 62
     0
 10
6.14056
 20
95.9143
 30
0.0
 11
6.14056
 21
95.3491
 31
0.0
  0
LINE
  8
0
 62
     0
 10
6.14056
 20
95.3491
 30
0.0
 11
6.32658
 21
94.9731
 31
0.0
  0
LINE
  8
0
 62
     0
 10
6.32658
 20
94.9731
 30
0.0
 11
6.70003
 21
94.5967
 31
0.0
  0
LINE
  8
0
 62
     0
 10
6.70003
 20
94.5967
 30
0.0
 11
7.25812
 21
94.4079
 31
0.0
  0
LINE
  8
0
 62
     0
 10
7.25812
 20
94.4079
 30
0.0
 11
7.6302
 21
94.4079
 31
0.0
  0
LINE
  8
0
 62
     0
 10
7.6302
 20
94.4079
 30
0.0
 11
8.18829
 21
94.5967
 31
0.0
  0
LINE
  8
0
 62
     0
 10
8.18829
 20
94.5967
 30
0.0
 11
8.56036
 21
94.9731
 31
0.0
  0
LINE
  8
0
 62
     0
 10
8.56036
 20
94.9731
 30
0.0
 11
8.74642
 21
95.3491
 31
0.0
  0
LINE
  8
0
 62
     0
 10
8.74642
 20
95.3491
 30
0.0
 11
8.74642
 21
95.9143
 31
0.0
  0
LINE
  8
0
 62
     0
 10
8.74642
 20
95.9143
 30
0.0
 11
8.56036
 21
96.2918
 31
0.0
  0
LINE
  8
0
 62
     0
 10
8.56036
 20
96.2918
 30
0.0
 11
8.18829
 21
96.6682
 31
0.0
  0
LINE
  8
0
 62
     0
 10
4.83828
 20
98.1742
 30
0.0
 11
8.74642
 21
98.1742
 31
0.0
  0
LINE
  8
0
 62
     0
 10
6.70003
 20
98.1742
 30
0.0
 11
6.32658
 21
98.5517
 31
0.0
  0
LINE
  8
0
 62
     0
 10
6.32658
 20
98.5517
 30
0.0
 11
6.14056
 21
98.9281
 31
0.0
  0
LINE
  8
0
 62
     0
 10
6.14056
 20
98.9281
 30
0.0
 11
6.14056
 21
99.4929
 31
0.0
  0
LINE
  8
0
 62
     0
 10
6.14056
 20
99.4929
 30
0.0
 11
6.32658
 21
99.8693
 31
0.0
  0
LINE
  8
0
 62
     0
 10
6.32658
 20
99.8693
 30
0.0
 11
6.70003
 21
100.247
 31
0.0
  0
LINE
  8
0
 62
     0
 10
6.70003
 20
100.247
 30
0.0
 11
7.25812
 21
100.434
 31
0.0
  0
LINE
  8
0
 62
     0
 10
7.25812
 20
100.434
 30
0.0
 11
7.6302
 21
100.434
 31
0.0
  0
LINE
  8
0
 62
     0
 10
7.6302
 20
100.434
 30
0.0
 11
8.18829
 21
100.247
 31
0.0
  0
LINE
  8
0
 62
     0
 10
8.18829
 20
100.247
 30
0.0
 11
8.56036
 21
99.8693
 31
0.0
  0
LINE
  8
0
 62
     0
 10
8.56036
 20
99.8693
 30
0.0
 11
8.74642
 21
99.4929
 31
0.0
  0
LINE
  8
0
 62
     0
 10
8.74642
 20
99.4929
 30
0.0
 11
8.74642
 21
98.9281
 31
0.0
  0
LINE
  8
0
 62
     0
 10
8.74642
 20
98.9281
 30
0.0
 11
8.56036
 21
98.5517
 31
0.0
  0
LINE
  8
0
 62
     0
 10
8.56036
 20
98.5517
 30
0.0
 11
8.18829
 21
98.1742
 31
0.0
  0
LINE
  8
0
 62
     0
 10
7.0721
 20
101.753
 30
0.0
 11
7.0721
 21
105.143
 31
0.0
  0
LINE
  8
0
 62
     0
 10
4.83828
 20
106.649
 30
0.0
 11
8.74642
 21
106.649
 31
0.0
  0
LINE
  8
0
 62
     0
 10
6.14056
 20
110.228
 30
0.0
 11
8.74642
 21
110.228
 31
0.0
  0
LINE
  8
0
 62
     0
 10
6.70003
 20
110.228
 30
0.0
 11
6.32658
 21
109.852
 31
0.0
  0
LINE
  8
0
 62
     0
 10
6.32658
 20
109.852
 30
0.0
 11
6.14056
 21
109.474
 31
0.0
  0
LINE
  8
0
 62
     0
 10
6.14056
 20
109.474
 30
0.0
 11
6.14056
 21
108.909
 31
0.0
  0
LINE
  8
0
 62
     0
 10
6.14056
 20
108.909
 30
0.0
 11
6.32658
 21
108.533
 31
0.0
  0
LINE
  8
0
 62
     0
 10
6.32658
 20
108.533
 30
0.0
 11
6.70003
 21
108.157
 31
0.0
  0
LINE
  8
0
 62
     0
 10
6.70003
 20
108.157
 30
0.0
 11
7.25812
 21
107.968
 31
0.0
  0
LINE
  8
0
 62
     0
 10
7.25812
 20
107.968
 30
0.0
 11
7.6302
 21
107.968
 31
0.0
  0
LINE
  8
0
 62
     0
 10
7.6302
 20
107.968
 30
0.0
 11
8.18829
 21
108.157
 31
0.0
  0
LINE
  8
0
 62
     0
 10
8.18829
 20
108.157
 30
0.0
 11
8.56036
 21
108.533
 31
0.0
  0
LINE
  8
0
 62
     0
 10
8.56036
 20
108.533
 30
0.0
 11
8.74642
 21
108.909
 31
0.0
  0
LINE
  8
0
 62
     0
 10
8.74642
 20
108.909
 30
0.0
 11
8.74642
 21
109.474
 31
0.0
  0
LINE
  8
0
 62
     0
 10
8.74642
 20
109.474
 30
0.0
 11
8.56036
 21
109.852
 31
0.0
  0
LINE
  8
0
 62
     0
 10
8.56036
 20
109.852
 30
0.0
 11
8.18829
 21
110.228
 31
0.0
  0
LINE
  8
0
 62
     0
 10
6.14056
 20
111.734
 30
0.0
 11
8.74642
 21
111.734
 31
0.0
  0
LINE
  8
0
 62
     0
 10
6.88605
 20
111.734
 30
0.0
 11
6.32658
 21
112.299
 31
0.0
  0
LINE
  8
0
 62
     0
 10
6.32658
 20
112.299
 30
0.0
 11
6.14056
 21
112.675
 31
0.0
  0
LINE
  8
0
 62
     0
 10
6.14056
 20
112.675
 30
0.0
 11
6.14056
 21
113.24
 31
0.0
  0
LINE
  8
0
 62
     0
 10
6.14056
 20
113.24
 30
0.0
 11
6.32658
 21
113.618
 31
0.0
  0
LINE
  8
0
 62
     0
 10
6.32658
 20
113.618
 30
0.0
 11
6.88605
 21
113.805
 31
0.0
  0
LINE
  8
0
 62
     0
 10
6.88605
 20
113.805
 30
0.0
 11
8.74642
 21
113.805
 31
0.0
  0
LINE
  8
0
 62
     0
 10
6.14056
 20
115.313
 30
0.0
 11
8.74642
 21
115.313
 31
0.0
  0
LINE
  8
0
 62
     0
 10
6.88605
 20
115.313
 30
0.0
 11
6.32658
 21
115.878
 31
0.0
  0
LINE
  8
0
 62
     0
 10
6.32658
 20
115.878
 30
0.0
 11
6.14056
 21
116.254
 31
0.0
  0
LINE
  8
0
 62
     0
 10
6.14056
 20
116.254
 30
0.0
 11
6.14056
 21
116.819
 31
0.0
  0
LINE
  8
0
 62
     0
 10
6.14056
 20
116.819
 30
0.0
 11
6.32658
 21
117.195
 31
0.0
  0
LINE
  8
0
 62
     0
 10
6.32658
 20
117.195
 30
0.0
 11
6.88605
 21
117.384
 31
0.0
  0
LINE
  8
0
 62
     0
 10
6.88605
 20
117.384
 30
0.0
 11
8.74642
 21
117.384
 31
0.0
  0
LINE
  8
0
 62
     0
 10
4.83828
 20
118.703
 30
0.0
 11
5.02433
 21
118.89
 31
0.0
  0
LINE
  8
0
 62
     0
 10
5.02433
 20
118.89
 30
0.0
 11
4.83828
 21
119.079
 31
0.0
  0
LINE
  8
0
 62
     0
 10
4.83828
 20
119.079
 30
0.0
 11
4.65226
 21
118.89
 31
0.0
  0
LINE
  8
0
 62
     0
 10
4.65226
 20
118.89
 30
0.0
 11
4.83828
 21
118.703
 31
0.0
  0
LINE
  8
0
 62
     0
 10
6.14056
 20
118.89
 30
0.0
 11
8.74642
 21
118.89
 31
0.0
  0
LINE
  8
0
 62
     0
 10
6.14056
 20
121.15
 30
0.0
 11
6.32658
 21
120.774
 31
0.0
  0
LINE
  8
0
 62
     0
 10
6.32658
 20
120.774
 30
0.0
 11
6.70003
 21
120.398
 31
0.0
  0
LINE
  8
0
 62
     0
 10
6.70003
 20
120.398
 30
0.0
 11
7.25812
 21
120.209
 31
0.0
  0
LINE
  8
0
 62
     0
 10
7.25812
 20
120.209
 30
0.0
 11
7.6302
 21
120.209
 31
0.0
  0
LINE
  8
0
 62
     0
 10
7.6302
 20
120.209
 30
0.0
 11
8.18829
 21
120.398
 31
0.0
  0
LINE
  8
0
 62
     0
 10
8.18829
 20
120.398
 30
0.0
 11
8.56036
 21
120.774
 31
0.0
  0
LINE
  8
0
 62
     0
 10
8.56036
 20
120.774
 30
0.0
 11
8.74642
 21
121.15
 31
0.0
  0
LINE
  8
0
 62
     0
 10
8.74642
 20
121.15
 30
0.0
 11
8.74642
 21
121.715
 31
0.0
  0
LINE
  8
0
 62
     0
 10
8.74642
 20
121.715
 30
0.0
 11
8.56036
 21
122.093
 31
0.0
  0
LINE
  8
0
 62
     0
 10
8.56036
 20
122.093
 30
0.0
 11
8.18829
 21
122.469
 31
0.0
  0
LINE
  8
0
 62
     0
 10
8.18829
 20
122.469
 30
0.0
 11
7.6302
 21
122.658
 31
0.0
  0
LINE
  8
0
 62
     0
 10
7.6302
 20
122.658
 30
0.0
 11
7.25812
 21
122.658
 31
0.0
  0
LINE
  8
0
 62
     0
 10
7.25812
 20
122.658
 30
0.0
 11
6.70003
 21
122.469
 31
0.0
  0
LINE
  8
0
 62
     0
 10
6.70003
 20
122.469
 30
0.0
 11
6.32658
 21
122.093
 31
0.0
  0
LINE
  8
0
 62
     0
 10
6.32658
 20
122.093
 30
0.0
 11
6.14056
 21
121.715
 31
0.0
  0
LINE
  8
0
 62
     0
 10
6.14056
 20
121.715
 30
0.0
 11
6.14056
 21
121.15
 31
0.0
  0
LINE
  8
0
 62
     0
 10
6.14056
 20
123.975
 30
0.0
 11
8.74642
 21
123.975
 31
0.0
  0
LINE
  8
0
 62
     0
 10
6.88605
 20
123.975
 30
0.0
 11
6.32658
 21
124.54
 31
0.0
  0
LINE
  8
0
 62
     0
 10
6.32658
 20
124.54
 30
0.0
 11
6.14056
 21
124.918
 31
0.0
  0
LINE
  8
0
 62
     0
 10
6.14056
 20
124.918
 30
0.0
 11
6.14056
 21
125.483
 31
0.0
  0
LINE
  8
0
 62
     0
 10
6.14056
 20
125.483
 30
0.0
 11
6.32658
 21
125.859
 31
0.0
  0
LINE
  8
0
 62
     0
 10
6.32658
 20
125.859
 30
0.0
 11
6.88605
 21
126.048
 31
0.0
  0
LINE
  8
0
 62
     0
 10
6.88605
 20
126.048
 30
0.0
 11
8.74642
 21
126.048
 31
0.0
  0
LINE
  8
0
 62
     0
 10
7.81625
 20
127.554
 30
0.0
 11
8.00227
 21
127.365
 31
0.0
  0
LINE
  8
0
 62
     0
 10
8.00227
 20
127.365
 30
0.0
 11
8.18829
 21
127.554
 31
0.0
  0
LINE
  8
0
 62
     0
 10
8.18829
 20
127.554
 30
0.0
 11
8.00227
 21
127.743
 31
0.0
  0
LINE
  8
0
 62
     0
 10
8.00227
 20
127.743
 30
0.0
 11
7.81625
 21
127.554
 31
0.0
  0
LINE
  8
0
 62
     0
 10
6.14056
 20
129.814
 30
0.0
 11
6.32658
 21
129.438
 31
0.0
  0
LINE
  8
0
 62
     0
 10
6.32658
 20
129.438
 30
0.0
 11
6.70003
 21
129.06
 31
0.0
  0
LINE
  8
0
 62
     0
 10
6.70003
 20
129.06
 30
0.0
 11
7.25812
 21
128.873
 31
0.0
  0
LINE
  8
0
 62
     0
 10
7.25812
 20
128.873
 30
0.0
 11
7.6302
 21
128.873
 31
0.0
  0
LINE
  8
0
 62
     0
 10
7.6302
 20
128.873
 30
0.0
 11
8.18829
 21
129.06
 31
0.0
  0
LINE
  8
0
 62
     0
 10
8.18829
 20
129.06
 30
0.0
 11
8.56036
 21
129.438
 31
0.0
  0
LINE
  8
0
 62
     0
 10
8.56036
 20
129.438
 30
0.0
 11
8.74642
 21
129.814
 31
0.0
  0
LINE
  8
0
 62
     0
 10
8.74642
 20
129.814
 30
0.0
 11
8.74642
 21
130.379
 31
0.0
  0
LINE
  8
0
 62
     0
 10
8.74642
 20
130.379
 30
0.0
 11
8.56036
 21
130.755
 31
0.0
  0
LINE
  8
0
 62
     0
 10
8.56036
 20
130.755
 30
0.0
 11
8.18829
 21
131.133
 31
0.0
  0
LINE
  8
0
 62
     0
 10
8.18829
 20
131.133
 30
0.0
 11
7.6302
 21
131.32
 31
0.0
  0
LINE
  8
0
 62
     0
 10
7.6302
 20
131.32
 30
0.0
 11
7.25812
 21
131.32
 31
0.0
  0
LINE
  8
0
 62
     0
 10
7.25812
 20
131.32
 30
0.0
 11
6.70003
 21
131.133
 31
0.0
  0
LINE
  8
0
 62
     0
 10
6.70003
 20
131.133
 30
0.0
 11
6.32658
 21
130.755
 31
0.0
  0
LINE
  8
0
 62
     0
 10
6.32658
 20
130.755
 30
0.0
 11
6.14056
 21
130.379
 31
0.0
  0
LINE
  8
0
 62
     0
 10
6.14056
 20
130.379
 30
0.0
 11
6.14056
 21
129.814
 31
0.0
  0
LINE
  8
0
 62
     0
 10
6.14056
 20
132.639
 30
0.0
 11
8.74642
 21
132.639
 31
0.0
  0
LINE
  8
0
 62
     0
 10
7.25812
 20
132.639
 30
0.0
 11
6.70003
 21
132.828
 31
0.0
  0
LINE
  8
0
 62
     0
 10
6.70003
 20
132.828
 30
0.0
 11
6.32658
 21
133.204
 31
0.0
  0
LINE
  8
0
 62
     0
 10
6.32658
 20
133.204
 30
0.0
 11
6.14056
 21
133.58
 31
0.0
  0
LINE
  8
0
 62
     0
 10
6.14056
 20
133.58
 30
0.0
 11
6.14056
 21
134.145
 31
0.0
  0
LINE
  8
0
 62
     0
 10
6.14056
 20
137.159
 30
0.0
 11
9.11849
 21
137.159
 31
0.0
  0
LINE
  8
0
 62
     0
 10
9.11849
 20
137.159
 30
0.0
 11
9.67659
 21
136.97
 31
0.0
  0
LINE
  8
0
 62
     0
 10
9.67659
 20
136.97
 30
0.0
 11
9.86261
 21
136.783
 31
0.0
  0
LINE
  8
0
 62
     0
 10
9.86261
 20
136.783
 30
0.0
 11
10.05
 21
136.405
 31
0.0
  0
LINE
  8
0
 62
     0
 10
10.05
 20
136.405
 30
0.0
 11
10.05
 21
135.84
 31
0.0
  0
LINE
  8
0
 62
     0
 10
10.05
 20
135.84
 30
0.0
 11
9.86261
 21
135.464
 31
0.0
  0
LINE
  8
0
 62
     0
 10
6.70003
 20
137.159
 30
0.0
 11
6.32658
 21
136.783
 31
0.0
  0
LINE
  8
0
 62
     0
 10
6.32658
 20
136.783
 30
0.0
 11
6.14056
 21
136.405
 31
0.0
  0
LINE
  8
0
 62
     0
 10
6.14056
 20
136.405
 30
0.0
 11
6.14056
 21
135.84
 31
0.0
  0
LINE
  8
0
 62
     0
 10
6.14056
 20
135.84
 30
0.0
 11
6.32658
 21
135.464
 31
0.0
  0
LINE
  8
0
 62
     0
 10
6.32658
 20
135.464
 30
0.0
 11
6.70003
 21
135.088
 31
0.0
  0
LINE
  8
0
 62
     0
 10
6.70003
 20
135.088
 30
0.0
 11
7.25812
 21
134.899
 31
0.0
  0
LINE
  8
0
 62
     0
 10
7.25812
 20
134.899
 30
0.0
 11
7.6302
 21
134.899
 31
0.0
  0
LINE
  8
0
 62
     0
 10
7.6302
 20
134.899
 30
0.0
 11
8.18829
 21
135.088
 31
0.0
  0
LINE
  8
0
 62
     0
 10
8.18829
 20
135.088
 30
0.0
 11
8.56036
 21
135.464
 31
0.0
  0
LINE
  8
0
 62
     0
 10
8.56036
 20
135.464
 30
0.0
 11
8.74642
 21
135.84
 31
0.0
  0
LINE
  8
0
 62
     0
 10
8.74642
 20
135.84
 30
0.0
 11
8.74642
 21
136.405
 31
0.0
  0
LINE
  8
0
 62
     0
 10
8.74642
 20
136.405
 30
0.0
 11
8.56036
 21
136.783
 31
0.0
  0
LINE
  8
0
 62
     0
 10
8.56036
 20
136.783
 30
0.0
 11
8.18829
 21
137.159
 31
0.0
  0
ENDSEC
  0
EOF
